<svg xmlns="http://www.w3.org/2000/svg" width="433.23992919921875" height="438.6318054199219" viewBox="-213.45712280273438 -218.10165405273438 433.23992919921875 438.6318054199219"><title>Neo4j Graph Visualization</title><desc>Created using Neo4j (http://www.neo4j.com/)</desc><g class="layer relationships"><g class="relationship" transform="translate(38.61544800097873 191.53014272572236) rotate(329.8190725721608)"><path class="outline" fill="#A5ABB6" stroke="none" d="M 24.018736134675446,6.953439040707552 L 24.277555179777966,5.987513214418485 A 176.25164118736205 176.25164118736205 0 0 0 44.46691810287854,10.149247394874578 L 44.322647568003156,11.138785677492677 A 177.25164118736205 177.25164118736205 0 0 1 24.018736134675446,6.953439040707552 Z M 91.20469552648083,11.707504084085997 L 91.08447176587647,10.714757264707487 A 176.25164118736205 176.25164118736205 0 0 0 111.36884931255098,7.044003367562124 L 110.66291524492742,4.128243245026587 L 118.2899452764045,5.882783896863062 L 112.31009473604907,10.93168353094284 L 111.60416066842551,8.015923408407303 A 177.25164118736205 177.25164118736205 0 0 1 91.20469552648083,11.707504084085997"/><text text-anchor="middle" pointer-events="none" font-size="8px" fill="#000000" x="67.75084933099676" y="15.480138552830994" font-family="sans-serif">DIRECTED</text></g><g class="relationship" transform="translate(38.61544800097873 191.53014272572236) rotate(329.8190725721608)"><path class="outline" fill="#A5ABB6" stroke="none" d="M 24.018736134675446,-6.953439040707552 L 24.277555179777966,-5.987513214418485 A 176.25164118736205 176.25164118736205 0 0 1 49.963468815354545,-10.862549479352737 L 49.850384093419386,-11.856134828311156 A 177.25164118736205 177.25164118736205 0 0 0 24.018736134675446,-6.953439040707552 Z M 85.66118412561433,-12.290549748734009 L 85.57223517501303,-11.29451356255052 A 176.25164118736205 176.25164118736205 0 0 1 111.36884931255098,-7.044003367562124 L 110.66291524492742,-4.128243245026587 L 118.2899452764045,-5.882783896863062 L 112.31009473604907,-10.93168353094284 L 111.60416066842551,-8.015923408407303 A 177.25164118736205 177.25164118736205 0 0 0 85.66118412561433,-12.290549748734009"/><text text-anchor="middle" pointer-events="none" font-size="8px" fill="#000000" x="67.75084933099672" y="-9.480138552830994" font-family="sans-serif">WROTE</text></g><g class="relationship" transform="translate(190.78279900001525 -19.398928658089797) rotate(461.7283862717353)"><path class="outline" fill="#A5ABB6" stroke="none" d="M 24.018736134675446,6.953439040707552 L 24.277555179777966,5.987513214418485 A 175.5162831821677 175.5162831821677 0 0 0 44.28116232158824,10.117052055096508 L 44.136313369625455,11.106505834267239 A 176.5162831821677 176.5162831821677 0 0 1 24.018736134675446,6.953439040707552 Z M 91.01774403851422,11.676641827153759 L 90.89700032206292,10.68395811370948 A 175.5162831821677 175.5162831821677 0 0 0 110.99511716249458,7.042105674510029 L 110.28936033319728,4.126302646543251 L 117.91628369929994,5.8813069108108005 L 111.9361262682243,10.929843045132397 L 111.230369438927,8.014040017165621 A 176.5162831821677 176.5162831821677 0 0 1 91.01774403851422,11.676641827153759"/><text text-anchor="middle" pointer-events="none" font-size="8px" fill="#000000" x="67.56409526782821" y="15.455070964792895" transform="rotate(180 67.56409526782821 12.455070964792895)" font-family="sans-serif">DIRECTED</text></g><g class="relationship" transform="translate(190.78279900001525 -19.398928658089797) rotate(461.7283862717353)"><path class="outline" fill="#A5ABB6" stroke="none" d="M 24.018736134675446,-6.953439040707552 L 24.277555179777966,-5.987513214418485 A 175.5162831821677 175.5162831821677 0 0 1 49.777275151238044,-10.833197273616747 L 49.66374017613258,-11.826731273753552 A 176.5162831821677 176.5162831821677 0 0 0 24.018736134675446,-6.953439040707552 Z M 85.47443688617315,-12.26223349357565 L 85.38509711191011,-11.266232286380273 A 175.5162831821677 175.5162831821677 0 0 1 110.99511716249458,-7.042105674510029 L 110.28936033319728,-4.126302646543251 L 117.91628369929994,-5.8813069108108005 L 111.9361262682243,-10.929843045132397 L 111.230369438927,-8.014040017165621 A 176.5162831821677 176.5162831821677 0 0 0 85.47443688617315,-12.26223349357565"/><text text-anchor="middle" pointer-events="none" font-size="8px" fill="#000000" x="67.56409526782814" y="-9.455070964792895" transform="rotate(180 67.56409526782814 -12.455070964792895)" font-family="sans-serif">WROTE</text></g><g class="relationship" transform="translate(62.108182278691345 -184.323303451089) rotate(180.1824019795544)"><path class="outline" fill="#A5ABB6" stroke="none" d="M 21.40063509461097,12.933012701892217 L 21.90063509461097,12.06698729810778 A 95.67203610153955 95.67203610153955 0 0 0 42.122280836825055,20.812709703922266 L 41.83364506158925,21.7701486780893 A 96.67203610153955 96.67203610153955 0 0 1 21.40063509461097,12.933012701892217 Z M 93.24334809677865,22.983133249220387 L 93.00018889687612,22.013146855757697 A 95.67203610153955 95.67203610153955 0 0 0 113.61180413500844,14.230863501988102 L 112.23600553875838,11.564934353913014 L 120.06160524655866,11.464988302083814 L 115.44620226334186,17.785435699421555 L 114.0704036670918,15.119506551346467 A 96.67203610153955 96.67203610153955 0 0 1 93.24334809677865,22.983133249220387"/><text text-anchor="middle" pointer-events="none" font-size="8px" fill="#000000" x="67.46815650522178" y="28.3578514422814" transform="rotate(180 67.46815650522178 25.3578514422814)" font-family="sans-serif">PRODUCED</text></g><g class="relationship" transform="translate(62.108182278691345 -184.323303451089) rotate(180.1824019795544)"><path class="outline" fill="#A5ABB6" stroke="none" d="M 25 0.5 L 44.19352824025886 0.5 L 44.19352824025886 -0.5 L 25 -0.5 Z M 91.08415324025886 0.5 L 110.27768148051771 0.5 L 110.27768148051771 3.5 L 117.27768148051771 0 L 110.27768148051771 -3.5 L 110.27768148051771 -0.5 L 91.08415324025886 -0.5 Z"/><text text-anchor="middle" pointer-events="none" font-size="8px" fill="#000000" x="67.63884074025886" y="3" transform="rotate(180 67.63884074025886 0)" font-family="sans-serif">DIRECTED</text></g><g class="relationship" transform="translate(62.108182278691345 -184.323303451089) rotate(180.1824019795544)"><path class="outline" fill="#A5ABB6" stroke="none" d="M 21.40063509461097,-12.933012701892217 L 21.90063509461097,-12.06698729810778 A 95.67203610153955 95.67203610153955 0 0 1 49.83247250265748,-22.791214780580944 L 49.62442654216807,-23.769333831782802 A 96.67203610153955 96.67203610153955 0 0 0 21.40063509461097,-12.933012701892217 Z M 85.36694909978054,-24.612659621196784 L 85.20526536387595,-23.625816994663083 A 95.67203610153955 95.67203610153955 0 0 1 113.61180413500844,-14.230863501988102 L 112.23600553875838,-11.564934353913014 L 120.06160524655866,-11.464988302083814 L 115.44620226334186,-17.785435699421555 L 114.0704036670918,-15.119506551346467 A 96.67203610153955 96.67203610153955 0 0 0 85.36694909978054,-24.612659621196784"/><text text-anchor="middle" pointer-events="none" font-size="8px" fill="#000000" x="67.46815650522174" y="-22.3578514422814" transform="rotate(180 67.46815650522174 -25.3578514422814)" font-family="sans-serif">WROTE</text></g><g class="relationship" transform="translate(-184.21391580818457 -18.24398861547128) rotate(438.7236294775756)"><path class="outline" fill="#A5ABB6" stroke="none" d="M 21.40063509461097,12.933012701892217 L 21.90063509461097,12.06698729810778 A 95.32574190445972 95.32574190445972 0 0 0 49.663662674578504,22.737970241278347 L 49.45490643544839,23.71593794658577 A 96.32574190445972 96.32574190445972 0 0 1 21.40063509461097,12.933012701892217 Z M 85.19655589332388,24.56117808884295 L 85.03426230972512,23.57443557292369 A 95.32574190445972 95.32574190445972 0 0 0 113.27067955222563,14.227761368325856 L 111.89516945498903,11.561683355138666 L 119.72077993253518,11.46258414363832 L 115.10469301520777,17.782532052575444 L 113.72918291797117,15.116454039388254 A 96.32574190445972 96.32574190445972 0 0 1 85.19655589332388,24.56117808884295"/><text text-anchor="middle" pointer-events="none" font-size="8px" fill="#000000" x="67.2979943612073" y="28.31143072777344" font-family="sans-serif">WROTE</text></g><g class="relationship" transform="translate(-184.21391580818457 -18.24398861547128) rotate(438.7236294775756)"><path class="outline" fill="#A5ABB6" stroke="none" d="M 25 0.5 L 44.02373585454754 0.5 L 44.02373585454754 -0.5 L 25 -0.5 Z M 90.91436085454754 0.5 L 109.93809670909508 0.5 L 109.93809670909508 3.5 L 116.93809670909508 0 L 109.93809670909508 -3.5 L 109.93809670909508 -0.5 L 90.91436085454754 -0.5 Z"/><text text-anchor="middle" pointer-events="none" font-size="8px" fill="#000000" x="67.46904835454754" y="3" font-family="sans-serif">DIRECTED</text></g><g class="relationship" transform="translate(-184.21391580818457 -18.24398861547128) rotate(438.7236294775756)"><path class="outline" fill="#A5ABB6" stroke="none" d="M 21.40063509461097,-12.933012701892217 L 21.90063509461097,-12.06698729810778 A 95.32574190445972 95.32574190445972 0 0 1 41.95537002781231,-20.752748794120393 L 41.66575113298431,-21.70989083987881 A 96.32574190445972 96.32574190445972 0 0 0 21.40063509461097,-12.933012701892217 Z M 93.07183119142688,-22.92557291053123 L 92.82778090248229,-21.955810333161864 A 95.32574190445972 95.32574190445972 0 0 1 113.27067955222563,-14.227761368325856 L 111.89516945498903,-11.561683355138666 L 119.72077993253518,-11.46258414363832 L 115.10469301520777,-17.782532052575444 L 113.72918291797117,-15.116454039388254 A 96.32574190445972 96.32574190445972 0 0 0 93.07183119142688,-22.92557291053123"/><text text-anchor="middle" pointer-events="none" font-size="8px" fill="#000000" x="67.2979943612073" y="-22.31143072777344" font-family="sans-serif">PRODUCED</text></g></g><g class="layer nodes"><g class="node" aria-label="graph-node5" transform="translate(38.61544800097873,191.53014272572236)"><circle class="outline" cx="0" cy="0" r="25" fill="#F79767" stroke="#f36924" stroke-width="2px"/><text class="caption" text-anchor="middle" pointer-events="none" x="0" y="0" font-size="10px" fill="#FFFFFF" font-family="sans-serif"> Lilly</text><text class="caption" text-anchor="middle" pointer-events="none" x="0" y="10" font-size="10px" fill="#FFFFFF" font-family="sans-serif"> Wach…</text></g><g class="node" aria-label="graph-node121" transform="translate(161.8744858398979,119.84658798425922)"><circle class="outline" cx="0" cy="0" r="25" fill="#C990C0" stroke="#b261a5" stroke-width="2px"/><text class="caption" text-anchor="middle" pointer-events="none" x="0" y="0" font-size="10px" fill="#FFFFFF" font-family="sans-serif"> Speed</text><text class="caption" text-anchor="middle" pointer-events="none" x="0" y="10" font-size="10px" fill="#FFFFFF" font-family="sans-serif"> Racer</text></g><g class="node" aria-label="graph-node6" transform="translate(190.78279900001525,-19.398928658089797)"><circle class="outline" cx="0" cy="0" r="25" fill="#F79767" stroke="#f36924" stroke-width="2px"/><text class="caption" text-anchor="middle" pointer-events="none" x="0" y="0" font-size="10px" fill="#FFFFFF" font-family="sans-serif"> Lana</text><text class="caption" text-anchor="middle" pointer-events="none" x="0" y="10" font-size="10px" fill="#FFFFFF" font-family="sans-serif"> Wach…</text></g><g class="node" aria-label="graph-node45" transform="translate(62.108182278691345,-184.323303451089)"><circle class="outline" cx="0" cy="0" r="25" fill="#F79767" stroke="#f36924" stroke-width="2px"/><text class="caption" text-anchor="middle" pointer-events="none" x="0" y="0" font-size="10px" fill="#FFFFFF" font-family="sans-serif"> Cameron</text><text class="caption" text-anchor="middle" pointer-events="none" x="0" y="10" font-size="10px" fill="#FFFFFF" font-family="sans-serif"> Crowe</text></g><g class="node" aria-label="graph-node37" transform="translate(-80.16877822675825,-184.77624583416213)"><circle class="outline" cx="0" cy="0" r="25" fill="#C990C0" stroke="#b261a5" stroke-width="2px"/><text class="caption" text-anchor="middle" pointer-events="none" x="0" y="0" font-size="10px" fill="#FFFFFF" font-family="sans-serif"> Jerry</text><text class="caption" text-anchor="middle" pointer-events="none" x="0" y="10" font-size="10px" fill="#FFFFFF" font-family="sans-serif"> Maguire</text></g><g class="node" aria-label="graph-node156" transform="translate(-184.21391580818457,-18.24398861547128)"><circle class="outline" cx="0" cy="0" r="25" fill="#F79767" stroke="#f36924" stroke-width="2px"/><text class="caption" text-anchor="middle" pointer-events="none" x="0" y="0" font-size="10px" fill="#FFFFFF" font-family="sans-serif"> Nancy</text><text class="caption" text-anchor="middle" pointer-events="none" x="0" y="10" font-size="10px" fill="#FFFFFF" font-family="sans-serif"> Meyers</text></g><g class="node" aria-label="graph-node154" transform="translate(-156.45909764123877,120.95404788619857)"><circle class="outline" cx="0" cy="0" r="25" fill="#C990C0" stroke="#b261a5" stroke-width="2px"/><text class="caption" text-anchor="middle" pointer-events="none" x="0" y="5" font-size="10px" fill="#FFFFFF" font-family="sans-serif"> Somethi…</text></g></g></svg>