<svg xmlns="http://www.w3.org/2000/svg" width="321.30999755859375" height="289.40924072265625" viewBox="-173.52760314941406 -94.25033569335938 321.30999755859375 289.40924072265625"><title>Neo4j Graph Visualization</title><desc>Created using Neo4j (http://www.neo4j.com/)</desc><g class="layer relationships"><g class="relationship" transform="translate(-8.433256575771388 79.94434500340698) rotate(396.92930883809834)"><path class="outline" fill="#A5ABB6" stroke="none" d="M 25 0.5 L 45.46506953116564 0.5 L 45.46506953116564 -0.5 L 25 -0.5 Z M 91.02756953116564 0.5 L 111.49263906233128 0.5 L 111.49263906233128 3.5 L 118.49263906233128 0 L 111.49263906233128 -3.5 L 111.49263906233128 -0.5 L 91.02756953116564 -0.5 Z"/><text text-anchor="middle" pointer-events="none" font-size="8px" fill="#000000" x="68.24631953116564" y="3" font-family="sans-serif">ACTED_IN</text></g><g class="relationship" transform="translate(-8.433256575771388 79.94434500340698) rotate(330.9448292561698)"><path class="outline" fill="#A5ABB6" stroke="none" d="M 25 0.5 L 46.483873164501276 0.5 L 46.483873164501276 -0.5 L 25 -0.5 Z M 92.04637316450128 0.5 L 113.53024632900255 0.5 L 113.53024632900255 3.5 L 120.53024632900255 0 L 113.53024632900255 -3.5 L 113.53024632900255 -0.5 L 92.04637316450128 -0.5 Z"/><text text-anchor="middle" pointer-events="none" font-size="8px" fill="#000000" x="69.26512316450128" y="3" font-family="sans-serif">ACTED_IN</text></g><g class="relationship" transform="translate(-8.433256575771388 79.94434500340698) rotate(276.70240338091213)"><path class="outline" fill="#A5ABB6" stroke="none" d="M 25 0.5 L 46.815652870332926 0.5 L 46.815652870332926 -0.5 L 25 -0.5 Z M 92.37815287033293 0.5 L 114.19380574066585 0.5 L 114.19380574066585 3.5 L 121.19380574066585 0 L 114.19380574066585 -3.5 L 114.19380574066585 -0.5 L 92.37815287033293 -0.5 Z"/><text text-anchor="middle" pointer-events="none" font-size="8px" fill="#000000" x="69.59690287033293" y="3" font-family="sans-serif">ACTED_IN</text></g><g class="relationship" transform="translate(-8.433256575771388 79.94434500340698) rotate(225.02151564033153)"><path class="outline" fill="#A5ABB6" stroke="none" d="M 25 0.5 L 46.32960941873344 0.5 L 46.32960941873344 -0.5 L 25 -0.5 Z M 91.89210941873344 0.5 L 113.22171883746688 0.5 L 113.22171883746688 3.5 L 120.22171883746688 0 L 113.22171883746688 -3.5 L 113.22171883746688 -0.5 L 91.89210941873344 -0.5 Z"/><text text-anchor="middle" pointer-events="none" font-size="8px" fill="#000000" x="69.11085941873344" y="3" transform="rotate(180 69.11085941873344 0)" font-family="sans-serif">ACTED_IN</text></g><g class="relationship" transform="translate(-8.433256575771388 79.94434500340698) rotate(521.5931790356293)"><path class="outline" fill="#A5ABB6" stroke="none" d="M 25 0.5 L 45.435041836997456 0.5 L 45.435041836997456 -0.5 L 25 -0.5 Z M 90.99754183699746 0.5 L 111.43258367399491 0.5 L 111.43258367399491 3.5 L 118.43258367399491 0 L 111.43258367399491 -3.5 L 111.43258367399491 -0.5 L 90.99754183699746 -0.5 Z"/><text text-anchor="middle" pointer-events="none" font-size="8px" fill="#000000" x="68.21629183699746" y="3" transform="rotate(180 68.21629183699746 0)" font-family="sans-serif">ACTED_IN</text></g></g><g class="layer nodes"><g class="node" aria-label="graph-node4" transform="translate(-8.433256575771388,79.94434500340698)"><circle class="outline" cx="0" cy="0" r="25" fill="#F79767" stroke="#f36924" stroke-width="2px"/><text class="caption" text-anchor="middle" pointer-events="none" x="0" y="0" font-size="10px" fill="#FFFFFF" font-family="sans-serif"> Hugo</text><text class="caption" text-anchor="middle" pointer-events="none" x="0" y="10" font-size="10px" fill="#FFFFFF" font-family="sans-serif"> Weavi…</text></g><g class="node" aria-label="graph-node105" transform="translate(106.27151866513691,166.15891454942508)"><circle class="outline" cx="0" cy="0" r="25" fill="#C990C0" stroke="#b261a5" stroke-width="2px"/><text class="caption" text-anchor="middle" pointer-events="none" x="0" y="0" font-size="10px" fill="#FFFFFF" font-family="sans-serif"> Cloud</text><text class="caption" text-anchor="middle" pointer-events="none" x="0" y="10" font-size="10px" fill="#FFFFFF" font-family="sans-serif"> Atlas</text></g><g class="node" aria-label="graph-node116" transform="translate(118.78236817220117,9.26735145838416)"><circle class="outline" cx="0" cy="0" r="25" fill="#C990C0" stroke="#b261a5" stroke-width="2px"/><text class="caption" text-anchor="middle" pointer-events="none" x="0" y="0" font-size="10px" fill="#FFFFFF" font-family="sans-serif"> V for</text><text class="caption" text-anchor="middle" pointer-events="none" x="0" y="10" font-size="10px" fill="#FFFFFF" font-family="sans-serif"> Vende…</text></g><g class="node" aria-label="graph-node10" transform="translate(8.629372982605798,-65.25033640570364)"><circle class="outline" cx="0" cy="0" r="25" fill="#C990C0" stroke="#b261a5" stroke-width="2px"/><text class="caption" text-anchor="middle" pointer-events="none" x="0" y="-5" font-size="10px" fill="#FFFFFF" font-family="sans-serif"> The</text><text class="caption" text-anchor="middle" pointer-events="none" x="0" y="5" font-size="10px" fill="#FFFFFF" font-family="sans-serif"> Matrix</text><text class="caption" text-anchor="middle" pointer-events="none" x="0" y="15" font-size="10px" fill="#FFFFFF" font-family="sans-serif"> Rev…</text></g><g class="node" aria-label="graph-node9" transform="translate(-111.08195050821415,-22.781470914851692)"><circle class="outline" cx="0" cy="0" r="25" fill="#C990C0" stroke="#b261a5" stroke-width="2px"/><text class="caption" text-anchor="middle" pointer-events="none" x="0" y="-5" font-size="10px" fill="#FFFFFF" font-family="sans-serif"> The</text><text class="caption" text-anchor="middle" pointer-events="none" x="0" y="5" font-size="10px" fill="#FFFFFF" font-family="sans-serif"> Matrix</text><text class="caption" text-anchor="middle" pointer-events="none" x="0" y="15" font-size="10px" fill="#FFFFFF" font-family="sans-serif"> Rel…</text></g><g class="node" aria-label="graph-node0" transform="translate(-144.52760371318502,125.23490402665941)"><circle class="outline" cx="0" cy="0" r="25" fill="#C990C0" stroke="#b261a5" stroke-width="2px"/><text class="caption" text-anchor="middle" pointer-events="none" x="0" y="0" font-size="10px" fill="#FFFFFF" font-family="sans-serif"> The</text><text class="caption" text-anchor="middle" pointer-events="none" x="0" y="10" font-size="10px" fill="#FFFFFF" font-family="sans-serif"> Matrix</text></g></g></svg>