<svg xmlns="http://www.w3.org/2000/svg" width="616.2733154296875" height="602.6763305664062" viewBox="-306.2387390136719 -285.0213928222656 616.2733154296875 602.6763305664062"><title>Neo4j Graph Visualization</title><desc>Created using Neo4j (http://www.neo4j.com/)</desc><g class="layer relationships"><g class="relationship" transform="translate(68.28300523291246 288.65491061319926) rotate(284.4785156554377)"><path class="outline" fill="#A5ABB6" stroke="none" d="M 25 0.5 L 47.493910020118065 0.5 L 47.493910020118065 -0.5 L 25 -0.5 Z M 93.05641002011807 0.5 L 115.55032004023613 0.5 L 115.55032004023613 3.5 L 122.55032004023613 0 L 115.55032004023613 -3.5 L 115.55032004023613 -0.5 L 93.05641002011807 -0.5 Z"/><text text-anchor="middle" pointer-events="none" font-size="8px" fill="#000000" x="70.27516002011807" y="3" font-family="sans-serif">ACTED_IN</text></g><g class="relationship" transform="translate(251.82128519852716 134.98605656173345) rotate(535.7862643281089)"><path class="outline" fill="#A5ABB6" stroke="none" d="M 25 0.5 L 47.24158917298605 0.5 L 47.24158917298605 -0.5 L 25 -0.5 Z M 92.80408917298605 0.5 L 115.0456783459721 0.5 L 115.0456783459721 3.5 L 122.0456783459721 0 L 115.0456783459721 -3.5 L 115.0456783459721 -0.5 L 92.80408917298605 -0.5 Z"/><text text-anchor="middle" pointer-events="none" font-size="8px" fill="#000000" x="70.02283917298605" y="3" transform="rotate(180 70.02283917298605 0)" font-family="sans-serif">ACTED_IN</text></g><g class="relationship" transform="translate(201.9381404236996 257.7020871088348) rotate(229.15144384184805)"><path class="outline" fill="#A5ABB6" stroke="none" d="M 25 0.5 L 47.69114746639261 0.5 L 47.69114746639261 -0.5 L 25 -0.5 Z M 93.25364746639261 0.5 L 115.94479493278521 0.5 L 115.94479493278521 3.5 L 122.94479493278521 0 L 115.94479493278521 -3.5 L 115.94479493278521 -0.5 L 93.25364746639261 -0.5 Z"/><text text-anchor="middle" pointer-events="none" font-size="8px" fill="#000000" x="70.47239746639261" y="3" transform="rotate(180 70.47239746639261 0)" font-family="sans-serif">ACTED_IN</text></g><g class="relationship" transform="translate(-6.962980878998227 7.439037297432657) rotate(410.97469638905454)"><path class="outline" fill="#A5ABB6" stroke="none" d="M 25 0.5 L 62.76318469505682 0.5 L 62.76318469505682 -0.5 L 25 -0.5 Z M 108.32568469505682 0.5 L 146.08886939011364 0.5 L 146.08886939011364 3.5 L 153.08886939011364 0 L 146.08886939011364 -3.5 L 146.08886939011364 -0.5 L 108.32568469505682 -0.5 Z"/><text text-anchor="middle" pointer-events="none" font-size="8px" fill="#000000" x="85.54443469505682" y="3" font-family="sans-serif">ACTED_IN</text></g><g class="relationship" transform="translate(-6.962980878998227 7.439037297432657) rotate(320.83802393349436)"><path class="outline" fill="#A5ABB6" stroke="none" d="M 25 0.5 L 64.80769285045436 0.5 L 64.80769285045436 -0.5 L 25 -0.5 Z M 110.37019285045436 0.5 L 150.17788570090872 0.5 L 150.17788570090872 3.5 L 157.17788570090872 0 L 150.17788570090872 -3.5 L 150.17788570090872 -0.5 L 110.37019285045436 -0.5 Z"/><text text-anchor="middle" pointer-events="none" font-size="8px" fill="#000000" x="87.58894285045436" y="3" font-family="sans-serif">ACTED_IN</text></g><g class="relationship" transform="translate(-6.962980878998227 7.439037297432657) rotate(222.40996567570267)"><path class="outline" fill="#A5ABB6" stroke="none" d="M 25 0.5 L 70.38339202386994 0.5 L 70.38339202386994 -0.5 L 25 -0.5 Z M 115.94589202386994 0.5 L 161.3292840477399 0.5 L 161.3292840477399 3.5 L 168.3292840477399 0 L 161.3292840477399 -3.5 L 161.3292840477399 -0.5 L 115.94589202386994 -0.5 Z"/><text text-anchor="middle" pointer-events="none" font-size="8px" fill="#000000" x="93.16464202386994" y="3" transform="rotate(180 93.16464202386994 0)" font-family="sans-serif">ACTED_IN</text></g><g class="relationship" transform="translate(-6.962980878998227 7.439037297432657) rotate(510.17548044055417)"><path class="outline" fill="#A5ABB6" stroke="none" d="M 25 0.5 L 36.760908877012874 0.5 L 36.760908877012874 -0.5 L 25 -0.5 Z M 82.32340887701287 0.5 L 94.08431775402575 0.5 L 94.08431775402575 3.5 L 101.08431775402575 0 L 94.08431775402575 -3.5 L 94.08431775402575 -0.5 L 82.32340887701287 -0.5 Z"/><text text-anchor="middle" pointer-events="none" font-size="8px" fill="#000000" x="59.542158877012874" y="3" transform="rotate(180 59.542158877012874 0)" font-family="sans-serif">ACTED_IN</text></g><g class="relationship" transform="translate(-6.962980878998227 7.439037297432657) rotate(505.07860160196344)"><path class="outline" fill="#A5ABB6" stroke="none" d="M 25 0.5 L 85.77326453364441 0.5 L 85.77326453364441 -0.5 L 25 -0.5 Z M 131.3357645336444 0.5 L 192.10902906728882 0.5 L 192.10902906728882 3.5 L 199.10902906728882 0 L 192.10902906728882 -3.5 L 192.10902906728882 -0.5 L 131.3357645336444 -0.5 Z"/><text text-anchor="middle" pointer-events="none" font-size="8px" fill="#000000" x="108.55451453364441" y="3" transform="rotate(180 108.55451453364441 0)" font-family="sans-serif">ACTED_IN</text></g><g class="relationship" transform="translate(281.0345624709656 -89.2079496530937) rotate(187.14736345424978)"><path class="outline" fill="#A5ABB6" stroke="none" d="M 25 0.5 L 47.66506191963069 0.5 L 47.66506191963069 -0.5 L 25 -0.5 Z M 93.22756191963069 0.5 L 115.89262383926138 0.5 L 115.89262383926138 3.5 L 122.89262383926138 0 L 115.89262383926138 -3.5 L 115.89262383926138 -0.5 L 93.22756191963069 -0.5 Z"/><text text-anchor="middle" pointer-events="none" font-size="8px" fill="#000000" x="70.44631191963069" y="3" transform="rotate(180 70.44631191963069 0)" font-family="sans-serif">ACTED_IN</text></g><g class="relationship" transform="translate(242.95421711904928 -207.94870635846885) rotate(497.28055376420286)"><path class="outline" fill="#A5ABB6" stroke="none" d="M 25 0.5 L 47.67095984572653 0.5 L 47.67095984572653 -0.5 L 25 -0.5 Z M 93.23345984572653 0.5 L 115.90441969145306 0.5 L 115.90441969145306 3.5 L 122.90441969145306 0 L 115.90441969145306 -3.5 L 115.90441969145306 -0.5 L 93.23345984572653 -0.5 Z"/><text text-anchor="middle" pointer-events="none" font-size="8px" fill="#000000" x="70.45220984572653" y="3" transform="rotate(180 70.45220984572653 0)" font-family="sans-serif">ACTED_IN</text></g><g class="relationship" transform="translate(137.83330094758392 -256.02138907434676) rotate(451.36721615161053)"><path class="outline" fill="#A5ABB6" stroke="none" d="M 25 0.5 L 47.94607271255289 0.5 L 47.94607271255289 -0.5 L 25 -0.5 Z M 93.50857271255289 0.5 L 116.45464542510578 0.5 L 116.45464542510578 3.5 L 123.45464542510578 0 L 116.45464542510578 -3.5 L 116.45464542510578 -0.5 L 93.50857271255289 -0.5 Z"/><text text-anchor="middle" pointer-events="none" font-size="8px" fill="#000000" x="70.72732271255289" y="3" transform="rotate(180 70.72732271255289 0)" font-family="sans-serif">ACTED_IN</text></g><g class="relationship" transform="translate(38.63245864266677 -220.03070586029105) rotate(409.605815394794)"><path class="outline" fill="#A5ABB6" stroke="none" d="M 25 0.5 L 47.52461584415883 0.5 L 47.52461584415883 -0.5 L 25 -0.5 Z M 93.08711584415883 0.5 L 115.61173168831766 0.5 L 115.61173168831766 3.5 L 122.61173168831766 0 L 115.61173168831766 -3.5 L 115.61173168831766 -0.5 L 93.08711584415883 -0.5 Z"/><text text-anchor="middle" pointer-events="none" font-size="8px" fill="#000000" x="70.30586584415883" y="3" font-family="sans-serif">ACTED_IN</text></g><g class="relationship" transform="translate(-170.8878713994834 -13.208415153595661) rotate(280.9251571421433)"><path class="outline" fill="#A5ABB6" stroke="none" d="M 25 0.5 L 29.60147897465542 0.5 L 29.60147897465542 -0.5 L 25 -0.5 Z M 75.16397897465542 0.5 L 79.76545794931084 0.5 L 79.76545794931084 3.5 L 86.76545794931084 0 L 79.76545794931084 -3.5 L 79.76545794931084 -0.5 L 75.16397897465542 -0.5 Z"/><text text-anchor="middle" pointer-events="none" font-size="8px" fill="#000000" x="52.38272897465542" y="3" font-family="sans-serif">ACTED_IN</text></g><g class="relationship" transform="translate(-170.8878713994834 -13.208415153595661) rotate(416.8027973023459)"><path class="outline" fill="#A5ABB6" stroke="none" d="M 25 0.5 L 25.749635588303406 0.5 L 25.749635588303406 -0.5 L 25 -0.5 Z M 66.8629168383034 0.5 L 67.61255242660681 0.5 L 67.61255242660681 3.5 L 74.61255242660681 0 L 67.61255242660681 -3.5 L 67.61255242660681 -0.5 L 66.8629168383034 -0.5 Z"/><text text-anchor="middle" pointer-events="none" font-size="8px" fill="#000000" x="46.306276213303406" y="3" font-family="sans-serif">ACTED…</text></g><g class="relationship" transform="translate(-170.8878713994834 -13.208415153595661) rotate(457.58409644162765)"><path class="outline" fill="#A5ABB6" stroke="none" d="M 25 0.5 L 48.84551559858278 0.5 L 48.84551559858278 -0.5 L 25 -0.5 Z M 94.40801559858278 0.5 L 118.25353119716556 0.5 L 118.25353119716556 3.5 L 125.25353119716556 0 L 118.25353119716556 -3.5 L 118.25353119716556 -0.5 L 94.40801559858278 -0.5 Z"/><text text-anchor="middle" pointer-events="none" font-size="8px" fill="#000000" x="71.62676559858278" y="3" transform="rotate(180 71.62676559858278 0)" font-family="sans-serif">ACTED_IN</text></g><g class="relationship" transform="translate(-263.20455153186725 -48.5873038775633) rotate(326.7685226508573)"><path class="outline" fill="#A5ABB6" stroke="none" d="M 25 0.5 L 41.56344570505229 0.5 L 41.56344570505229 -0.5 L 25 -0.5 Z M 87.12594570505229 0.5 L 103.68939141010458 0.5 L 103.68939141010458 3.5 L 110.68939141010458 0 L 103.68939141010458 -3.5 L 103.68939141010458 -0.5 L 87.12594570505229 -0.5 Z"/><text text-anchor="middle" pointer-events="none" font-size="8px" fill="#000000" x="64.34469570505229" y="3" font-family="sans-serif">ACTED_IN</text></g><g class="relationship" transform="translate(-263.20455153186725 -48.5873038775633) rotate(398.95555652756514)"><path class="outline" fill="#A5ABB6" stroke="none" d="M 25 0.5 L 68.14415014618999 0.5 L 68.14415014618999 -0.5 L 25 -0.5 Z M 113.70665014618999 0.5 L 156.85080029237997 0.5 L 156.85080029237997 3.5 L 163.85080029237997 0 L 156.85080029237997 -3.5 L 156.85080029237997 -0.5 L 113.70665014618999 -0.5 Z"/><text text-anchor="middle" pointer-events="none" font-size="8px" fill="#000000" x="90.92540014618999" y="3" font-family="sans-serif">ACTED_IN</text></g><g class="relationship" transform="translate(-263.20455153186725 -48.5873038775633) rotate(428.53196880998246)"><path class="outline" fill="#A5ABB6" stroke="none" d="M 25 0.5 L 72.74824343351577 0.5 L 72.74824343351577 -0.5 L 25 -0.5 Z M 118.31074343351577 0.5 L 166.05898686703154 0.5 L 166.05898686703154 3.5 L 173.05898686703154 0 L 166.05898686703154 -3.5 L 166.05898686703154 -0.5 L 118.31074343351577 -0.5 Z"/><text text-anchor="middle" pointer-events="none" font-size="8px" fill="#000000" x="95.52949343351577" y="3" font-family="sans-serif">ACTED_IN</text></g><g class="relationship" transform="translate(-277.238734581402 48.72235990176405) rotate(306.6085143835907)"><path class="outline" fill="#A5ABB6" stroke="none" d="M 25 0.5 L 80.64809914506316 0.5 L 80.64809914506316 -0.5 L 25 -0.5 Z M 126.21059914506316 0.5 L 181.8586982901263 0.5 L 181.8586982901263 3.5 L 188.8586982901263 0 L 181.8586982901263 -3.5 L 181.8586982901263 -0.5 L 126.21059914506316 -0.5 Z"/><text text-anchor="middle" pointer-events="none" font-size="8px" fill="#000000" x="103.42934914506316" y="3" font-family="sans-serif">ACTED_IN</text></g><g class="relationship" transform="translate(-277.238734581402 48.72235990176405) rotate(367.58484199185773)"><path class="outline" fill="#A5ABB6" stroke="none" d="M 25 0.5 L 54.874302916169086 0.5 L 54.874302916169086 -0.5 L 25 -0.5 Z M 100.43680291616909 0.5 L 130.31110583233817 0.5 L 130.31110583233817 3.5 L 137.31110583233817 0 L 130.31110583233817 -3.5 L 130.31110583233817 -0.5 L 100.43680291616909 -0.5 Z"/><text text-anchor="middle" pointer-events="none" font-size="8px" fill="#000000" x="77.65555291616909" y="3" font-family="sans-serif">ACTED_IN</text></g><g class="relationship" transform="translate(-277.238734581402 48.72235990176405) rotate(405.16117938549615)"><path class="outline" fill="#A5ABB6" stroke="none" d="M 25 0.5 L 35.070611952470486 0.5 L 35.070611952470486 -0.5 L 25 -0.5 Z M 80.63311195247049 0.5 L 90.70372390494097 0.5 L 90.70372390494097 3.5 L 97.70372390494097 0 L 90.70372390494097 -3.5 L 90.70372390494097 -0.5 L 80.63311195247049 -0.5 Z"/><text text-anchor="middle" pointer-events="none" font-size="8px" fill="#000000" x="57.851861952470486" y="3" font-family="sans-serif">ACTED_IN</text></g><g class="relationship" transform="translate(-225.60323531371347 277.1004324801188) rotate(283.8615170889932)"><path class="outline" fill="#A5ABB6" stroke="none" d="M 25 0.5 L 46.52385981819771 0.5 L 46.52385981819771 -0.5 L 25 -0.5 Z M 92.0863598181977 0.5 L 113.61021963639541 0.5 L 113.61021963639541 3.5 L 120.61021963639541 0 L 113.61021963639541 -3.5 L 113.61021963639541 -0.5 L 92.0863598181977 -0.5 Z"/><text text-anchor="middle" pointer-events="none" font-size="8px" fill="#000000" x="69.3051098181977" y="3" font-family="sans-serif">ACTED_IN</text></g></g><g class="layer nodes"><g class="node" aria-label="graph-node71" transform="translate(68.28300523291246,288.65491061319926)"><circle class="outline" cx="0" cy="0" r="25" fill="#F79767" stroke="#f36924" stroke-width="2px"/><text class="caption" text-anchor="middle" pointer-events="none" x="0" y="0" font-size="10px" fill="#FFFFFF" font-family="sans-serif"> Tom</text><text class="caption" text-anchor="middle" pointer-events="none" x="0" y="10" font-size="10px" fill="#FFFFFF" font-family="sans-serif"> Hanks</text></g><g class="node" aria-label="graph-node105" transform="translate(105.17308735274815,145.7905736176849)"><circle class="outline" cx="0" cy="0" r="25" fill="#C990C0" stroke="#b261a5" stroke-width="2px"/><text class="caption" text-anchor="middle" pointer-events="none" x="0" y="0" font-size="10px" fill="#FFFFFF" font-family="sans-serif"> Cloud</text><text class="caption" text-anchor="middle" pointer-events="none" x="0" y="10" font-size="10px" fill="#FFFFFF" font-family="sans-serif"> Atlas</text></g><g class="node" aria-label="graph-node107" transform="translate(251.82128519852716,134.98605656173345)"><circle class="outline" cx="0" cy="0" r="25" fill="#F79767" stroke="#f36924" stroke-width="2px"/><text class="caption" text-anchor="middle" pointer-events="none" x="0" y="0" font-size="10px" fill="#FFFFFF" font-family="sans-serif"> Jim</text><text class="caption" text-anchor="middle" pointer-events="none" x="0" y="10" font-size="10px" fill="#FFFFFF" font-family="sans-serif"> Broad…</text></g><g class="node" aria-label="graph-node106" transform="translate(201.9381404236996,257.7020871088348)"><circle class="outline" cx="0" cy="0" r="25" fill="#F79767" stroke="#f36924" stroke-width="2px"/><text class="caption" text-anchor="middle" pointer-events="none" x="0" y="0" font-size="10px" fill="#FFFFFF" font-family="sans-serif"> Halle</text><text class="caption" text-anchor="middle" pointer-events="none" x="0" y="10" font-size="10px" fill="#FFFFFF" font-family="sans-serif"> Berry</text></g><g class="node" aria-label="graph-node4" transform="translate(-6.962980878998227,7.439037297432657)"><circle class="outline" cx="0" cy="0" r="25" fill="#F79767" stroke="#f36924" stroke-width="2px"/><text class="caption" text-anchor="middle" pointer-events="none" x="0" y="0" font-size="10px" fill="#FFFFFF" font-family="sans-serif"> Hugo</text><text class="caption" text-anchor="middle" pointer-events="none" x="0" y="10" font-size="10px" fill="#FFFFFF" font-family="sans-serif"> Weavi…</text></g><g class="node" aria-label="graph-node119" transform="translate(281.0345624709656,-89.2079496530937)"><circle class="outline" cx="0" cy="0" r="25" fill="#F79767" stroke="#f36924" stroke-width="2px"/><text class="caption" text-anchor="middle" pointer-events="none" x="0" y="5" font-size="10px" fill="#FFFFFF" font-family="sans-serif"> John Hurt</text></g><g class="node" aria-label="graph-node116" transform="translate(134.29114951950297,-107.60900781336697)"><circle class="outline" cx="0" cy="0" r="25" fill="#C990C0" stroke="#b261a5" stroke-width="2px"/><text class="caption" text-anchor="middle" pointer-events="none" x="0" y="0" font-size="10px" fill="#FFFFFF" font-family="sans-serif"> V for</text><text class="caption" text-anchor="middle" pointer-events="none" x="0" y="10" font-size="10px" fill="#FFFFFF" font-family="sans-serif"> Vende…</text></g><g class="node" aria-label="graph-node118" transform="translate(242.95421711904928,-207.94870635846885)"><circle class="outline" cx="0" cy="0" r="25" fill="#F79767" stroke="#f36924" stroke-width="2px"/><text class="caption" text-anchor="middle" pointer-events="none" x="0" y="0" font-size="10px" fill="#FFFFFF" font-family="sans-serif"> Stephen</text><text class="caption" text-anchor="middle" pointer-events="none" x="0" y="10" font-size="10px" fill="#FFFFFF" font-family="sans-serif"> Rea</text></g><g class="node" aria-label="graph-node117" transform="translate(137.83330094758392,-256.02138907434676)"><circle class="outline" cx="0" cy="0" r="25" fill="#F79767" stroke="#f36924" stroke-width="2px"/><text class="caption" text-anchor="middle" pointer-events="none" x="0" y="0" font-size="10px" fill="#FFFFFF" font-family="sans-serif"> Natalie</text><text class="caption" text-anchor="middle" pointer-events="none" x="0" y="10" font-size="10px" fill="#FFFFFF" font-family="sans-serif"> Portm…</text></g><g class="node" aria-label="graph-node120" transform="translate(38.63245864266677,-220.03070586029105)"><circle class="outline" cx="0" cy="0" r="25" fill="#F79767" stroke="#f36924" stroke-width="2px"/><text class="caption" text-anchor="middle" pointer-events="none" x="0" y="5" font-size="10px" fill="#FFFFFF" font-family="sans-serif"> Ben Miles</text></g><g class="node" aria-label="graph-node10" transform="translate(-149.70534658984477,-122.94819022766903)"><circle class="outline" cx="0" cy="0" r="25" fill="#C990C0" stroke="#b261a5" stroke-width="2px"/><text class="caption" text-anchor="middle" pointer-events="none" x="0" y="-5" font-size="10px" fill="#FFFFFF" font-family="sans-serif"> The</text><text class="caption" text-anchor="middle" pointer-events="none" x="0" y="5" font-size="10px" fill="#FFFFFF" font-family="sans-serif"> Matrix</text><text class="caption" text-anchor="middle" pointer-events="none" x="0" y="15" font-size="10px" fill="#FFFFFF" font-family="sans-serif"> Rev…</text></g><g class="node" aria-label="graph-node3" transform="translate(-170.8878713994834,-13.208415153595661)"><circle class="outline" cx="0" cy="0" r="25" fill="#F79767" stroke="#f36924" stroke-width="2px"/><text class="caption" text-anchor="middle" pointer-events="none" x="0" y="0" font-size="10px" fill="#FFFFFF" font-family="sans-serif"> Laurence</text><text class="caption" text-anchor="middle" pointer-events="none" x="0" y="10" font-size="10px" fill="#FFFFFF" font-family="sans-serif"> Fishb…</text></g><g class="node" aria-label="graph-node2" transform="translate(-263.20455153186725,-48.5873038775633)"><circle class="outline" cx="0" cy="0" r="25" fill="#F79767" stroke="#f36924" stroke-width="2px"/><text class="caption" text-anchor="middle" pointer-events="none" x="0" y="5" font-size="10px" fill="#FFFFFF" font-family="sans-serif"> Carrie-A…</text></g><g class="node" aria-label="graph-node1" transform="translate(-277.238734581402,48.72235990176405)"><circle class="outline" cx="0" cy="0" r="25" fill="#F79767" stroke="#f36924" stroke-width="2px"/><text class="caption" text-anchor="middle" pointer-events="none" x="0" y="0" font-size="10px" fill="#FFFFFF" font-family="sans-serif"> Keanu</text><text class="caption" text-anchor="middle" pointer-events="none" x="0" y="10" font-size="10px" fill="#FFFFFF" font-family="sans-serif"> Reeves</text></g><g class="node" aria-label="graph-node9" transform="translate(-116.3477705913254,70.14647675311521)"><circle class="outline" cx="0" cy="0" r="25" fill="#C990C0" stroke="#b261a5" stroke-width="2px"/><text class="caption" text-anchor="middle" pointer-events="none" x="0" y="-5" font-size="10px" fill="#FFFFFF" font-family="sans-serif"> The</text><text class="caption" text-anchor="middle" pointer-events="none" x="0" y="5" font-size="10px" fill="#FFFFFF" font-family="sans-serif"> Matrix</text><text class="caption" text-anchor="middle" pointer-events="none" x="0" y="15" font-size="10px" fill="#FFFFFF" font-family="sans-serif"> Rel…</text></g><g class="node" aria-label="graph-node8" transform="translate(-225.60323531371347,277.1004324801188)"><circle class="outline" cx="0" cy="0" r="25" fill="#F79767" stroke="#f36924" stroke-width="2px"/><text class="caption" text-anchor="middle" pointer-events="none" x="0" y="0" font-size="10px" fill="#FFFFFF" font-family="sans-serif"> Emil</text><text class="caption" text-anchor="middle" pointer-events="none" x="0" y="10" font-size="10px" fill="#FFFFFF" font-family="sans-serif"> Eifrem</text></g><g class="node" aria-label="graph-node0" transform="translate(-190.71852086588893,135.7307300667196)"><circle class="outline" cx="0" cy="0" r="25" fill="#C990C0" stroke="#b261a5" stroke-width="2px"/><text class="caption" text-anchor="middle" pointer-events="none" x="0" y="0" font-size="10px" fill="#FFFFFF" font-family="sans-serif"> The</text><text class="caption" text-anchor="middle" pointer-events="none" x="0" y="10" font-size="10px" fill="#FFFFFF" font-family="sans-serif"> Matrix</text></g></g></svg>