<svg xmlns="http://www.w3.org/2000/svg" width="342.3726501464844" height="543.0194091796875" viewBox="-112.61915588378906 -310.6722412109375 342.3726501464844 543.0194091796875"><title>Neo4j Graph Visualization</title><desc>Created using Neo4j (http://www.neo4j.com/)</desc><g class="layer relationships"><g class="relationship" transform="translate(169.6861836386127 203.34718472551143) rotate(282.38002615711434)"><path class="outline" fill="#A5ABB6" stroke="none" d="M 25 0.5 L 45.508142276576905 0.5 L 45.508142276576905 -0.5 L 25 -0.5 Z M 92.3987672765769 0.5 L 112.90690955315381 0.5 L 112.90690955315381 3.5 L 119.90690955315381 0 L 112.90690955315381 -3.5 L 112.90690955315381 -0.5 L 92.3987672765769 -0.5 Z"/><text text-anchor="middle" pointer-events="none" font-size="8px" fill="#000000" x="68.9534547765769" y="3" font-family="sans-serif">DIRECTED</text></g><g class="relationship" transform="translate(48.00300065346921 58.00639781864483) rotate(266.5749907160902)"><path class="outline" fill="#A5ABB6" stroke="none" d="M 24.018736134675446,6.953439040707552 L 24.277555179777966,5.987513214418485 A 285.075935145065 285.075935145065 0 0 0 69.74149784044923,14.29115628825707 L 69.64215890943468,15.286209943486256 A 286.075935145065 286.075935145065 0 0 1 24.018736134675446,6.953439040707552 Z M 121.44101469193532,15.7442250789274 L 121.35928681718644,14.747570397260233 A 285.075935145065 285.075935145065 0 0 0 166.96295414306638,7.249164101188214 L 166.23785978237677,4.338109624182309 L 173.87626364952843,6.042453005746775 L 167.92974662398584,11.130570070529421 L 167.20465226329623,8.219515593523516 A 286.075935145065 286.075935145065 0 0 1 121.44101469193532,15.7442250789274"/><text text-anchor="middle" pointer-events="none" font-size="8px" fill="#000000" x="95.53561956703953" y="19.190077032440797" transform="rotate(180 95.53561956703953 16.190077032440797)" font-family="sans-serif">PRODUCED</text></g><g class="relationship" transform="translate(48.00300065346921 58.00639781864483) rotate(266.5749907160902)"><path class="outline" fill="#A5ABB6" stroke="none" d="M 24.018736134675446,-6.953439040707552 L 24.277555179777966,-5.987513214418485 A 285.075935145065 285.075935145065 0 0 1 77.70195086193655,-14.97335356115832 L 77.63053590499382,-15.970800253430582 A 286.075935145065 286.075935145065 0 0 0 24.018736134675446,-6.953439040707552 Z M 113.44178112568254,-16.287449957025217 L 113.38801517496687,-15.28889639184024 A 285.075935145065 285.075935145065 0 0 1 166.96295414306638,-7.249164101188214 L 166.23785978237677,-4.338109624182309 L 173.87626364952843,-6.042453005746775 L 167.92974662398584,-11.130570070529421 L 167.20465226329623,-8.219515593523516 A 286.075935145065 286.075935145065 0 0 0 113.44178112568254,-16.287449957025217"/><text text-anchor="middle" pointer-events="none" font-size="8px" fill="#000000" x="95.53561956703949" y="-13.190077032440797" transform="rotate(180 95.53561956703949 -16.190077032440797)" font-family="sans-serif">WROTE</text></g><g class="relationship" transform="translate(48.00300065346921 58.00639781864483) rotate(361.4263325347236)"><path class="outline" fill="#A5ABB6" stroke="none" d="M 25 0.5 L 49.45359741145727 0.5 L 49.45359741145727 -0.5 L 25 -0.5 Z M 96.34422241145727 0.5 L 120.79781982291453 0.5 L 120.79781982291453 3.5 L 127.79781982291453 0 L 120.79781982291453 -3.5 L 120.79781982291453 -0.5 L 96.34422241145727 -0.5 Z"/><text text-anchor="middle" pointer-events="none" font-size="8px" fill="#000000" x="72.89890991145727" y="3" font-family="sans-serif">DIRECTED</text></g><g class="relationship" transform="translate(48.00300065346921 58.00639781864483) rotate(236.417463194981)"><path class="outline" fill="#A5ABB6" stroke="none" d="M 25 0.5 L 57.87301210410024 0.5 L 57.87301210410024 -0.5 L 25 -0.5 Z M 104.76363710410024 0.5 L 137.63664920820048 0.5 L 137.63664920820048 3.5 L 144.63664920820048 0 L 137.63664920820048 -3.5 L 137.63664920820048 -0.5 L 104.76363710410024 -0.5 Z"/><text text-anchor="middle" pointer-events="none" font-size="8px" fill="#000000" x="81.31832460410024" y="3" transform="rotate(180 81.31832460410024 0)" font-family="sans-serif">DIRECTED</text></g><g class="relationship" transform="translate(48.00300065346921 58.00639781864483) rotate(200.625279068005)"><path class="outline" fill="#A5ABB6" stroke="none" d="M 25 0.5 L 43.37286652176877 0.5 L 43.37286652176877 -0.5 L 25 -0.5 Z M 90.26349152176877 0.5 L 108.63635804353754 0.5 L 108.63635804353754 3.5 L 115.63635804353754 0 L 108.63635804353754 -3.5 L 108.63635804353754 -0.5 L 90.26349152176877 -0.5 Z"/><text text-anchor="middle" pointer-events="none" font-size="8px" fill="#000000" x="66.81817902176877" y="3" transform="rotate(180 66.81817902176877 0)" font-family="sans-serif">DIRECTED</text></g><g class="relationship selected" transform="translate(48.00300065346921 58.00639781864483) rotate(515.9101345465785)"><path class="outline" fill="#A5ABB6" stroke="none" d="M 25 0.5 L 28.570256884131275 0.5 L 28.570256884131275 -0.5 L 25 -0.5 Z M 75.46088188413128 0.5 L 79.03113876826255 0.5 L 79.03113876826255 3.5 L 86.03113876826255 0 L 79.03113876826255 -3.5 L 79.03113876826255 -0.5 L 75.46088188413128 -0.5 Z"/><text text-anchor="middle" pointer-events="none" font-size="8px" fill="#000000" x="52.015569384131275" y="3" transform="rotate(180 52.015569384131275 0)" font-family="sans-serif">DIRECTED</text></g><g class="relationship" transform="translate(83.70136176975137 -34.083488163575126) rotate(245.78384412599974)"><path class="outline" fill="#A5ABB6" stroke="none" d="M 24.018736134675446,6.953439040707552 L 24.277555179777966,5.987513214418485 A 123.42776684265328 123.42776684265328 0 0 0 28.843430520548498,7.118144510216425 L 28.62160376217017,8.093230603475561 A 124.42776684265328 124.42776684265328 0 0 1 24.018736134675446,6.953439040707552 Z M 80.22876859432468,8.855546729868095 L 80.03583933689012,7.874334060959995 A 123.42776684265328 123.42776684265328 0 0 0 84.6331175778353,6.879056446509859 L 83.94258967544874,3.9596093728286785 L 91.56024873348916,5.754399186554731 L 85.55382144768407,10.771652544751433 L 84.86329354529751,7.852205471070253 A 124.42776684265328 124.42776684265328 0 0 1 80.22876859432468,8.855546729868095"/><text text-anchor="middle" pointer-events="none" font-size="8px" fill="#000000" x="54.39261046923995" y="13.679694216521227" transform="rotate(180 54.39261046923995 10.679694216521227)" font-family="sans-serif">PRODUCED</text></g><g class="relationship" transform="translate(83.70136176975137 -34.083488163575126) rotate(245.78384412599974)"><path class="outline" fill="#A5ABB6" stroke="none" d="M 24.018736134675446,-6.953439040707552 L 24.277555179777966,-5.987513214418485 A 123.42776684265328 123.42776684265328 0 0 1 36.66812112578755,-8.634308968097855 L 36.5096892647277,-9.62167888125154 A 124.42776684265328 124.42776684265328 0 0 0 24.018736134675446,-6.953439040707552 Z M 72.29897951572102,-10.150341000149353 L 72.16978031854407,-9.158722339852545 A 123.42776684265328 123.42776684265328 0 0 1 84.6331175778353,-6.879056446509859 L 83.94258967544874,-3.9596093728286785 L 91.56024873348916,-5.754399186554731 L 85.55382144768407,-10.771652544751433 L 84.86329354529751,-7.852205471070253 A 124.42776684265328 124.42776684265328 0 0 0 72.29897951572102,-10.150341000149353"/><text text-anchor="middle" pointer-events="none" font-size="8px" fill="#000000" x="54.39261046923993" y="-7.679694216521227" transform="rotate(180 54.39261046923993 -10.679694216521227)" font-family="sans-serif">WROTE</text></g><g class="relationship" transform="translate(83.70136176975137 -34.083488163575126) rotate(399.3255584708716)"><path class="outline" fill="#A5ABB6" stroke="none" d="M 25 0.5 L 48.7129939778047 0.5 L 48.7129939778047 -0.5 L 25 -0.5 Z M 95.6036189778047 0.5 L 119.3166129556094 0.5 L 119.3166129556094 3.5 L 126.3166129556094 0 L 119.3166129556094 -3.5 L 119.3166129556094 -0.5 L 95.6036189778047 -0.5 Z"/><text text-anchor="middle" pointer-events="none" font-size="8px" fill="#000000" x="72.1583064778047" y="3" font-family="sans-serif">DIRECTED</text></g><g class="relationship" transform="translate(83.70136176975137 -34.083488163575126) rotate(200.81103943212452)"><path class="outline" fill="#A5ABB6" stroke="none" d="M 25 0.5 L 42.34047339214847 0.5 L 42.34047339214847 -0.5 L 25 -0.5 Z M 89.23109839214847 0.5 L 106.57157178429694 0.5 L 106.57157178429694 3.5 L 113.57157178429694 0 L 106.57157178429694 -3.5 L 106.57157178429694 -0.5 L 89.23109839214847 -0.5 Z"/><text text-anchor="middle" pointer-events="none" font-size="8px" fill="#000000" x="65.78578589214847" y="3" transform="rotate(180 65.78578589214847 0)" font-family="sans-serif">DIRECTED</text></g><g class="relationship" transform="translate(83.70136176975137 -34.083488163575126) rotate(525.7319607757263)"><path class="outline" fill="#A5ABB6" stroke="none" d="M 25 0.5 L 59.37772337292233 0.5 L 59.37772337292233 -0.5 L 25 -0.5 Z M 106.26834837292233 0.5 L 140.64607174584467 0.5 L 140.64607174584467 3.5 L 147.64607174584467 0 L 140.64607174584467 -3.5 L 140.64607174584467 -0.5 L 106.26834837292233 -0.5 Z"/><text text-anchor="middle" pointer-events="none" font-size="8px" fill="#000000" x="82.82303587292233" y="3" transform="rotate(180 82.82303587292233 0)" font-family="sans-serif">DIRECTED</text></g><g class="relationship" transform="translate(83.70136176975137 -34.083488163575126) rotate(494.9269460184164)"><path class="outline" fill="#A5ABB6" stroke="none" d="M 25 0.5 L 70.09412387419158 0.5 L 70.09412387419158 -0.5 L 25 -0.5 Z M 116.98474887419158 0.5 L 162.07887274838316 0.5 L 162.07887274838316 3.5 L 169.07887274838316 0 L 162.07887274838316 -3.5 L 162.07887274838316 -0.5 L 116.98474887419158 -0.5 Z"/><text text-anchor="middle" pointer-events="none" font-size="8px" fill="#000000" x="93.53943637419158" y="3" transform="rotate(180 93.53943637419158 0)" font-family="sans-serif">DIRECTED</text></g><g class="relationship" transform="translate(57.00311053717588 -281.67225321114717) rotate(458.35396282435534)"><path class="outline" fill="#A5ABB6" stroke="none" d="M 25 0.5 L 44.764320248179814 0.5 L 44.764320248179814 -0.5 L 25 -0.5 Z M 91.65494524817981 0.5 L 111.41926549635963 0.5 L 111.41926549635963 3.5 L 118.41926549635963 0 L 111.41926549635963 -3.5 L 111.41926549635963 -0.5 L 91.65494524817981 -0.5 Z"/><text text-anchor="middle" pointer-events="none" font-size="8px" fill="#000000" x="68.20963274817981" y="3" transform="rotate(180 68.20963274817981 0)" font-family="sans-serif">DIRECTED</text></g></g><g class="layer nodes"><g class="node" aria-label="graph-node108" transform="translate(169.6861836386127,203.34718472551143)"><circle class="outline" cx="0" cy="0" r="25" fill="#F79767" stroke="#f36924" stroke-width="2px"/><text class="caption" text-anchor="middle" pointer-events="none" x="0" y="0" font-size="10px" fill="#FFFFFF" font-family="sans-serif"> Tom</text><text class="caption" text-anchor="middle" pointer-events="none" x="0" y="10" font-size="10px" fill="#FFFFFF" font-family="sans-serif"> Tykwer</text></g><g class="node" aria-label="graph-node105" transform="translate(200.75347690175968,61.80978427761737)"><circle class="outline" cx="0" cy="0" r="25" fill="#C990C0" stroke="#b261a5" stroke-width="2px"/><text class="caption" text-anchor="middle" pointer-events="none" x="0" y="0" font-size="10px" fill="#FFFFFF" font-family="sans-serif"> Cloud</text><text class="caption" text-anchor="middle" pointer-events="none" x="0" y="10" font-size="10px" fill="#FFFFFF" font-family="sans-serif"> Atlas</text></g><g class="node" aria-label="graph-node6" transform="translate(48.00300065346921,58.00639781864483)"><circle class="outline" cx="0" cy="0" r="25" fill="#F79767" stroke="#f36924" stroke-width="2px"/><text class="caption" text-anchor="middle" pointer-events="none" x="0" y="0" font-size="10px" fill="#FFFFFF" font-family="sans-serif"> Lana</text><text class="caption" text-anchor="middle" pointer-events="none" x="0" y="10" font-size="10px" fill="#FFFFFF" font-family="sans-serif"> Wach…</text></g><g class="node" aria-label="graph-node5" transform="translate(83.70136176975137,-34.083488163575126)"><circle class="outline" cx="0" cy="0" r="25" fill="#F79767" stroke="#f36924" stroke-width="2px"/><text class="caption" text-anchor="middle" pointer-events="none" x="0" y="0" font-size="10px" fill="#FFFFFF" font-family="sans-serif"> Lilly</text><text class="caption" text-anchor="middle" pointer-events="none" x="0" y="10" font-size="10px" fill="#FFFFFF" font-family="sans-serif"> Wach…</text></g><g class="node" aria-label="graph-node25" transform="translate(57.00311053717588,-281.67225321114717)"><circle class="outline" cx="0" cy="0" r="25" fill="#F79767" stroke="#f36924" stroke-width="2px"/><text class="caption" text-anchor="middle" pointer-events="none" x="0" y="0" font-size="10px" fill="#FFFFFF" font-family="sans-serif"> James</text><text class="caption" text-anchor="middle" pointer-events="none" x="0" y="10" font-size="10px" fill="#FFFFFF" font-family="sans-serif"> Marsh…</text></g><g class="node selected" aria-label="graph-node116" transform="translate(36.165997823360485,-139.77475341193633)"><circle class="outline" cx="0" cy="0" r="25" fill="#C990C0" stroke="#b261a5" stroke-width="2px"/><text class="caption" text-anchor="middle" pointer-events="none" x="0" y="0" font-size="10px" fill="#FFFFFF" font-family="sans-serif"> V for</text><text class="caption" text-anchor="middle" pointer-events="none" x="0" y="10" font-size="10px" fill="#FFFFFF" font-family="sans-serif"> Vende…</text></g><g class="node" aria-label="graph-node10" transform="translate(-45.82941807661547,-83.31617627993336)"><circle class="outline" cx="0" cy="0" r="25" fill="#C990C0" stroke="#b261a5" stroke-width="2px"/><text class="caption" text-anchor="middle" pointer-events="none" x="0" y="-5" font-size="10px" fill="#FFFFFF" font-family="sans-serif"> The</text><text class="caption" text-anchor="middle" pointer-events="none" x="0" y="5" font-size="10px" fill="#FFFFFF" font-family="sans-serif"> Matrix</text><text class="caption" text-anchor="middle" pointer-events="none" x="0" y="15" font-size="10px" fill="#FFFFFF" font-family="sans-serif"> Rev…</text></g><g class="node" aria-label="graph-node9" transform="translate(-83.61915906727951,8.46659287155406)"><circle class="outline" cx="0" cy="0" r="25" fill="#C990C0" stroke="#b261a5" stroke-width="2px"/><text class="caption" text-anchor="middle" pointer-events="none" x="0" y="-5" font-size="10px" fill="#FFFFFF" font-family="sans-serif"> The</text><text class="caption" text-anchor="middle" pointer-events="none" x="0" y="5" font-size="10px" fill="#FFFFFF" font-family="sans-serif"> Matrix</text><text class="caption" text-anchor="middle" pointer-events="none" x="0" y="15" font-size="10px" fill="#FFFFFF" font-family="sans-serif"> Rel…</text></g><g class="node" aria-label="graph-node0" transform="translate(-53.358035299032515,103.32586567532675)"><circle class="outline" cx="0" cy="0" r="25" fill="#C990C0" stroke="#b261a5" stroke-width="2px"/><text class="caption" text-anchor="middle" pointer-events="none" x="0" y="0" font-size="10px" fill="#FFFFFF" font-family="sans-serif"> The</text><text class="caption" text-anchor="middle" pointer-events="none" x="0" y="10" font-size="10px" fill="#FFFFFF" font-family="sans-serif"> Matrix</text></g></g></svg>