<svg xmlns="http://www.w3.org/2000/svg" width="230.19369506835938" height="256.54437255859375" viewBox="-72.44266510009766 -94.37687683105469 230.19369506835938 256.54437255859375"><title>Neo4j Graph Visualization</title><desc>Created using Neo4j (http://www.neo4j.com/)</desc><g class="layer relationships"><g class="relationship" transform="translate(115.4856219095814 -65.37687838373753) rotate(464.79233375567026)"><path class="outline" fill="#A5ABB6" stroke="none" d="M 25 0.5 L 75.65954325011025 0.5 L 75.65954325011025 -0.5 L 25 -0.5 Z M 110.10485575011025 0.5 L 160.7643990002205 0.5 L 160.7643990002205 3.5 L 167.7643990002205 0 L 160.7643990002205 -3.5 L 160.7643990002205 -0.5 L 110.10485575011025 -0.5 Z"/><text text-anchor="middle" pointer-events="none" font-size="8px" fill="#000000" x="92.88219950011025" y="3" transform="rotate(180 92.88219950011025 0)" font-family="sans-serif">ORIGIN</text></g><g class="relationship" transform="translate(115.4856219095814 -65.37687838373753) rotate(443.1340586367145)"><path class="outline" fill="#A5ABB6" stroke="none" d="M 25 0.5 L 25.499752855447525 0.5 L 25.499752855447525 -0.5 L 25 -0.5 Z M 78.46459660544753 0.5 L 78.96434946089505 0.5 L 78.96434946089505 3.5 L 85.96434946089505 0 L 78.96434946089505 -3.5 L 78.96434946089505 -0.5 L 78.46459660544753 -0.5 Z"/><text text-anchor="middle" pointer-events="none" font-size="8px" fill="#000000" x="51.982174730447525" y="3" font-family="sans-serif">DESTINAT…</text></g><g class="relationship" transform="translate(18.40033101830707 -44.11507677048537) rotate(433.83221204713465)"><path class="outline" fill="#A5ABB6" stroke="none" d="M 25 0.5 L 65.23384776041509 0.5 L 65.23384776041509 -0.5 L 25 -0.5 Z M 99.67916026041509 0.5 L 139.91300802083018 0.5 L 139.91300802083018 3.5 L 146.91300802083018 0 L 139.91300802083018 -3.5 L 139.91300802083018 -0.5 L 99.67916026041509 -0.5 Z"/><text text-anchor="middle" pointer-events="none" font-size="8px" fill="#000000" x="82.45650401041509" y="3" font-family="sans-serif">ORIGIN</text></g><g class="relationship" transform="translate(18.40033101830707 -44.11507677048537) rotate(398.8575139646431)"><path class="outline" fill="#A5ABB6" stroke="none" d="M 25 0.5 L 37.76119740727263 0.5 L 37.76119740727263 -0.5 L 25 -0.5 Z M 96.94869740727263 0.5 L 109.70989481454527 0.5 L 109.70989481454527 3.5 L 116.70989481454527 0 L 109.70989481454527 -3.5 L 109.70989481454527 -0.5 L 96.94869740727263 -0.5 Z"/><text text-anchor="middle" pointer-events="none" font-size="8px" fill="#000000" x="67.35494740727263" y="3" font-family="sans-serif">DESTINATION</text></g><g class="relationship" transform="translate(-43.442666507368266 33.56085743825245) rotate(398.5539562005595)"><path class="outline" fill="#A5ABB6" stroke="none" d="M 25 0.5 L 49.423986842317404 0.5 L 49.423986842317404 -0.5 L 25 -0.5 Z M 83.8692993423174 0.5 L 108.29328618463481 0.5 L 108.29328618463481 3.5 L 115.29328618463481 0 L 108.29328618463481 -3.5 L 108.29328618463481 -0.5 L 83.8692993423174 -0.5 Z"/><text text-anchor="middle" pointer-events="none" font-size="8px" fill="#000000" x="66.6466430923174" y="3" font-family="sans-serif">ORIGIN</text></g><g class="relationship" transform="translate(-43.442666507368266 33.56085743825245) rotate(363.7316677651163)"><path class="outline" fill="#A5ABB6" stroke="none" d="M 25 0.5 L 53.18603495515282 0.5 L 53.18603495515282 -0.5 L 25 -0.5 Z M 112.37353495515282 0.5 L 140.55956991030564 0.5 L 140.55956991030564 3.5 L 147.55956991030564 0 L 140.55956991030564 -3.5 L 140.55956991030564 -0.5 L 112.37353495515282 -0.5 Z"/><text text-anchor="middle" pointer-events="none" font-size="8px" fill="#000000" x="82.77978495515282" y="3" font-family="sans-serif">DESTINATION</text></g><g class="relationship" transform="translate(-42.47924029530569 133.16749896641812) rotate(353.61534366199146)"><path class="outline" fill="#A5ABB6" stroke="none" d="M 25 0.5 L 33.99116894086684 0.5 L 33.99116894086684 -0.5 L 25 -0.5 Z M 68.43648144086684 0.5 L 77.42765038173368 0.5 L 77.42765038173368 3.5 L 84.42765038173368 0 L 77.42765038173368 -3.5 L 77.42765038173368 -0.5 L 68.43648144086684 -0.5 Z"/><text text-anchor="middle" pointer-events="none" font-size="8px" fill="#000000" x="51.21382519086684" y="3" font-family="sans-serif">ORIGIN</text></g><g class="relationship" transform="translate(-42.47924029530569 133.16749896641812) rotate(332.70072378333396)"><path class="outline" fill="#A5ABB6" stroke="none" d="M 25 0.5 L 63.25210056337309 0.5 L 63.25210056337309 -0.5 L 25 -0.5 Z M 122.43960056337309 0.5 L 160.69170112674618 0.5 L 160.69170112674618 3.5 L 167.69170112674618 0 L 160.69170112674618 -3.5 L 160.69170112674618 -0.5 L 122.43960056337309 -0.5 Z"/><text text-anchor="middle" pointer-events="none" font-size="8px" fill="#000000" x="92.84585056337309" y="3" font-family="sans-serif">DESTINATION</text></g></g><g class="layer nodes"><g class="node" aria-label="graph-node5" transform="translate(66.26971075869221,120.99883787646625)"><circle class="outline" cx="0" cy="0" r="25" fill="#8DCC93" stroke="#5db665" stroke-width="2px"/><text class="caption" text-anchor="middle" pointer-events="none" x="0" y="5" font-size="10px" fill="#2A2C34" font-family="sans-serif"> LAX</text></g><g class="node" aria-label="graph-node41" transform="translate(128.75104232783275,44.791699134567025)"><circle class="outline" cx="0" cy="0" r="25" fill="#8DCC93" stroke="#5db665" stroke-width="2px"/><text class="caption" text-anchor="middle" pointer-events="none" x="0" y="5" font-size="10px" fill="#2A2C34" font-family="sans-serif"> FAT</text></g><g class="node" aria-label="graph-node955" transform="translate(115.4856219095814,-65.37687838373753)"><circle class="outline" cx="0" cy="0" r="25" fill="#ECB5C9" stroke="#da7298" stroke-width="2px"/><text class="caption" text-anchor="middle" pointer-events="none" x="0" y="0" font-size="10px" fill="#2A2C34" font-family="sans-serif"> 11/2/2015</text><text class="caption" text-anchor="middle" pointer-events="none" x="0" y="10" font-size="10px" fill="#2A2C34" font-family="sans-serif"> 09:18:…</text></g><g class="node" aria-label="graph-node951" transform="translate(18.40033101830707,-44.11507677048537)"><circle class="outline" cx="0" cy="0" r="25" fill="#ECB5C9" stroke="#da7298" stroke-width="2px"/><text class="caption" text-anchor="middle" pointer-events="none" x="0" y="0" font-size="10px" fill="#2A2C34" font-family="sans-serif"> 11/3/2015</text><text class="caption" text-anchor="middle" pointer-events="none" x="0" y="10" font-size="10px" fill="#2A2C34" font-family="sans-serif"> 11:45:…</text></g><g class="node" aria-label="graph-node963" transform="translate(-43.442666507368266,33.56085743825245)"><circle class="outline" cx="0" cy="0" r="25" fill="#ECB5C9" stroke="#da7298" stroke-width="2px"/><text class="caption" text-anchor="middle" pointer-events="none" x="0" y="0" font-size="10px" fill="#2A2C34" font-family="sans-serif"> 11/4/2015</text><text class="caption" text-anchor="middle" pointer-events="none" x="0" y="10" font-size="10px" fill="#2A2C34" font-family="sans-serif"> 15:13:…</text></g><g class="node" aria-label="graph-node959" transform="translate(-42.47924029530569,133.16749896641812)"><circle class="outline" cx="0" cy="0" r="25" fill="#ECB5C9" stroke="#da7298" stroke-width="2px"/><text class="caption" text-anchor="middle" pointer-events="none" x="0" y="0" font-size="10px" fill="#2A2C34" font-family="sans-serif"> 11/1/2015</text><text class="caption" text-anchor="middle" pointer-events="none" x="0" y="10" font-size="10px" fill="#2A2C34" font-family="sans-serif"> 02:27:…</text></g></g></svg>