<svg xmlns="http://www.w3.org/2000/svg" width="199.97915649414062" height="209.65171813964844" viewBox="-106.3861312866211 -94.46014404296875 199.97915649414062 209.65171813964844"><title>Neo4j Graph Visualization</title><desc>Created using Neo4j (http://www.neo4j.com/)</desc><g class="layer relationships"><g class="relationship" transform="translate(-77.38612887666108 -49.33951178705219) rotate(431.544747472866)"><path class="outline" fill="#A5ABB6" stroke="none" d="M 25 0.5 L 50.71694101823989 0.5 L 50.71694101823989 -0.5 L 25 -0.5 Z M 85.1622535182399 0.5 L 110.87919453647979 0.5 L 110.87919453647979 3.5 L 117.87919453647979 0 L 110.87919453647979 -3.5 L 110.87919453647979 -0.5 L 85.1622535182399 -0.5 Z"/><text text-anchor="middle" pointer-events="none" font-size="8px" fill="#000000" x="67.9395972682399" y="3" font-family="sans-serif">ORIGIN</text></g><g class="relationship" transform="translate(-77.38612887666108 -49.33951178705219) rotate(353.5222504032914)"><path class="outline" fill="#A5ABB6" stroke="none" d="M 25 0.5 L 38.351958649766104 0.5 L 38.351958649766104 -0.5 L 25 -0.5 Z M 97.5394586497661 0.5 L 110.89141729953221 0.5 L 110.89141729953221 3.5 L 117.89141729953221 0 L 110.89141729953221 -3.5 L 110.89141729953221 -0.5 L 97.5394586497661 -0.5 Z"/><text text-anchor="middle" pointer-events="none" font-size="8px" fill="#000000" x="67.9457086497661" y="3" font-family="sans-serif">DESTINATION</text></g></g><g class="layer nodes"><g class="node" aria-label="graph-node5" transform="translate(-32.155729864163526,86.19157408096373)"><circle class="outline" cx="0" cy="0" r="25" fill="#8DCC93" stroke="#5db665" stroke-width="2px"/><text class="caption" text-anchor="middle" pointer-events="none" x="0" y="5" font-size="10px" fill="#2A2C34" font-family="sans-serif"> LAX</text></g><g class="node" aria-label="graph-node41" transform="translate(64.59303280712146,-65.46014407736232)"><circle class="outline" cx="0" cy="0" r="25" fill="#8DCC93" stroke="#5db665" stroke-width="2px"/><text class="caption" text-anchor="middle" pointer-events="none" x="0" y="5" font-size="10px" fill="#2A2C34" font-family="sans-serif"> FAT</text></g><g class="node" aria-label="graph-node959" transform="translate(-77.38612887666108,-49.33951178705219)"><circle class="outline" cx="0" cy="0" r="25" fill="#ECB5C9" stroke="#da7298" stroke-width="2px"/><text class="caption" text-anchor="middle" pointer-events="none" x="0" y="0" font-size="10px" fill="#2A2C34" font-family="sans-serif"> 11/1/2015</text><text class="caption" text-anchor="middle" pointer-events="none" x="0" y="10" font-size="10px" fill="#2A2C34" font-family="sans-serif"> 02:27:…</text></g></g></svg>