<svg xmlns="http://www.w3.org/2000/svg" width="739.4970092773438" height="797.058349609375" viewBox="-340.5924072265625 -390.11669921875 739.4970092773438 797.058349609375"><title>Neo4j Graph Visualization</title><desc>Created using Neo4j (http://www.neo4j.com/)</desc><g class="layer relationships"><g class="relationship" transform="translate(152.0350724862832 221.86392912835925) rotate(248.85840928039454)"><path class="outline" fill="#A5ABB6" stroke="none" d="M 25 0.5 L 85.72774143520616 0.5 L 85.72774143520616 -0.5 L 25 -0.5 Z M 120.17305393520616 0.5 L 180.9007953704123 0.5 L 180.9007953704123 3.5 L 187.9007953704123 0 L 180.9007953704123 -3.5 L 180.9007953704123 -0.5 L 120.17305393520616 -0.5 Z"/><text text-anchor="middle" pointer-events="none" font-size="8px" fill="#000000" x="102.95039768520616" y="3" transform="rotate(180 102.95039768520616 0)" font-family="sans-serif">ORIGIN</text></g><g class="relationship" transform="translate(152.0350724862832 221.86392912835925) rotate(437.57959733267296)"><path class="outline" fill="#A5ABB6" stroke="none" d="M 25 0.5 L 46.81531811868595 0.5 L 46.81531811868595 -0.5 L 25 -0.5 Z M 106.00281811868595 0.5 L 127.8181362373719 0.5 L 127.8181362373719 3.5 L 134.8181362373719 0 L 127.8181362373719 -3.5 L 127.8181362373719 -0.5 L 106.00281811868595 -0.5 Z"/><text text-anchor="middle" pointer-events="none" font-size="8px" fill="#000000" x="76.40906811868595" y="3" font-family="sans-serif">DESTINATION</text></g><g class="relationship" transform="translate(241.19525023727803 180.07662066053925) rotate(223.37344677935982)"><path class="outline" fill="#A5ABB6" stroke="none" d="M 25 0.5 L 93.42615405515464 0.5 L 93.42615405515464 -0.5 L 25 -0.5 Z M 127.87146655515464 0.5 L 196.29762061030928 0.5 L 196.29762061030928 3.5 L 203.29762061030928 0 L 196.29762061030928 -3.5 L 196.29762061030928 -0.5 L 127.87146655515464 -0.5 Z"/><text text-anchor="middle" pointer-events="none" font-size="8px" fill="#000000" x="110.64881030515464" y="3" transform="rotate(180 110.64881030515464 0)" font-family="sans-serif">ORIGIN</text></g><g class="relationship" transform="translate(241.19525023727803 180.07662066053925) rotate(395.5380371548491)"><path class="outline" fill="#A5ABB6" stroke="none" d="M 25 0.5 L 45.99229677998285 0.5 L 45.99229677998285 -0.5 L 25 -0.5 Z M 105.17979677998285 0.5 L 126.1720935599657 0.5 L 126.1720935599657 3.5 L 133.1720935599657 0 L 126.1720935599657 -3.5 L 126.1720935599657 -0.5 L 105.17979677998285 -0.5 Z"/><text text-anchor="middle" pointer-events="none" font-size="8px" fill="#000000" x="75.58604677998285" y="3" font-family="sans-serif">DESTINATION</text></g><g class="relationship" transform="translate(249.8358933877919 82.18401796603965) rotate(198.63990480022335)"><path class="outline" fill="#A5ABB6" stroke="none" d="M 25 0.5 L 71.40404954227894 0.5 L 71.40404954227894 -0.5 L 25 -0.5 Z M 105.84936204227894 0.5 L 152.25341158455788 0.5 L 152.25341158455788 3.5 L 159.25341158455788 0 L 152.25341158455788 -3.5 L 152.25341158455788 -0.5 L 105.84936204227894 -0.5 Z"/><text text-anchor="middle" pointer-events="none" font-size="8px" fill="#000000" x="88.62670579227894" y="3" transform="rotate(180 88.62670579227894 0)" font-family="sans-serif">ORIGIN</text></g><g class="relationship" transform="translate(249.8358933877919 82.18401796603965) rotate(244.20434823949336)"><path class="outline" fill="#A5ABB6" stroke="none" d="M 25 0.5 L 26.001534172967716 0.5 L 26.001534172967716 -0.5 L 25 -0.5 Z M 74.67340917296772 0.5 L 75.67494334593543 0.5 L 75.67494334593543 3.5 L 82.67494334593543 0 L 75.67494334593543 -3.5 L 75.67494334593543 -0.5 L 74.67340917296772 -0.5 Z"/><text text-anchor="middle" pointer-events="none" font-size="8px" fill="#000000" x="50.337471672967716" y="3" transform="rotate(180 50.337471672967716 0)" font-family="sans-serif">DESTINA…</text></g><g class="relationship" transform="translate(311.97943727383847 5.1544784413705615) rotate(535.6185164063909)"><path class="outline" fill="#A5ABB6" stroke="none" d="M 25 0.5 L 97.99034995788348 0.5 L 97.99034995788348 -0.5 L 25 -0.5 Z M 132.4356624578835 0.5 L 205.42601241576696 0.5 L 205.42601241576696 3.5 L 212.42601241576696 0 L 205.42601241576696 -3.5 L 205.42601241576696 -0.5 L 132.4356624578835 -0.5 Z"/><text text-anchor="middle" pointer-events="none" font-size="8px" fill="#000000" x="115.21300620788348" y="3" transform="rotate(180 115.21300620788348 0)" font-family="sans-serif">ORIGIN</text></g><g class="relationship" transform="translate(311.97943727383847 5.1544784413705615) rotate(190.3545347728753)"><path class="outline" fill="#A5ABB6" stroke="none" d="M 25 0.5 L 25.419669423998656 0.5 L 25.419669423998656 -0.5 L 25 -0.5 Z M 78.38451317399866 0.5 L 78.80418259799731 0.5 L 78.80418259799731 3.5 L 85.80418259799731 0 L 78.80418259799731 -3.5 L 78.80418259799731 -0.5 L 78.38451317399866 -0.5 Z"/><text text-anchor="middle" pointer-events="none" font-size="8px" fill="#000000" x="51.902091298998656" y="3" transform="rotate(180 51.902091298998656 0)" font-family="sans-serif">DESTINAT…</text></g><g class="relationship" transform="translate(160.3086057079526 123.42852459420449) rotate(229.65335186154994)"><path class="outline" fill="#A5ABB6" stroke="none" d="M 25 0.5 L 44.9708269172837 0.5 L 44.9708269172837 -0.5 L 25 -0.5 Z M 79.4161394172837 0.5 L 99.3869663345674 0.5 L 99.3869663345674 3.5 L 106.3869663345674 0 L 99.3869663345674 -3.5 L 99.3869663345674 -0.5 L 79.4161394172837 -0.5 Z"/><text text-anchor="middle" pointer-events="none" font-size="8px" fill="#000000" x="62.1934831672837" y="3" transform="rotate(180 62.1934831672837 0)" font-family="sans-serif">ORIGIN</text></g><g class="relationship" transform="translate(160.3086057079526 123.42852459420449) rotate(287.1599838490771)"><path class="outline" fill="#A5ABB6" stroke="none" d="M 25 0.5 L 39.22025041756619 0.5 L 39.22025041756619 -0.5 L 25 -0.5 Z M 98.40775041756619 0.5 L 112.62800083513238 0.5 L 112.62800083513238 3.5 L 119.62800083513238 0 L 112.62800083513238 -3.5 L 112.62800083513238 -0.5 L 98.40775041756619 -0.5 Z"/><text text-anchor="middle" pointer-events="none" font-size="8px" fill="#000000" x="68.81400041756619" y="3" font-family="sans-serif">DESTINATION</text></g><g class="relationship" transform="translate(272.34141527646204 -85.8606813545761) rotate(511.0216420307621)"><path class="outline" fill="#A5ABB6" stroke="none" d="M 25 0.5 L 91.92794243233817 0.5 L 91.92794243233817 -0.5 L 25 -0.5 Z M 126.37325493233817 0.5 L 193.30119736467634 0.5 L 193.30119736467634 3.5 L 200.30119736467634 0 L 193.30119736467634 -3.5 L 193.30119736467634 -0.5 L 126.37325493233817 -0.5 Z"/><text text-anchor="middle" pointer-events="none" font-size="8px" fill="#000000" x="109.15059868233817" y="3" transform="rotate(180 109.15059868233817 0)" font-family="sans-serif">ORIGIN</text></g><g class="relationship" transform="translate(272.34141527646204 -85.8606813545761) rotate(494.2911980902357)"><path class="outline" fill="#A5ABB6" stroke="none" d="M 25 0.5 L 27.384972923714635 0.5 L 27.384972923714635 -0.5 L 25 -0.5 Z M 64.94356667371463 0.5 L 67.32853959742927 0.5 L 67.32853959742927 3.5 L 74.32853959742927 0 L 67.32853959742927 -3.5 L 67.32853959742927 -0.5 L 64.94356667371463 -0.5 Z"/><text text-anchor="middle" pointer-events="none" font-size="8px" fill="#000000" x="46.164269798714635" y="3" transform="rotate(180 46.164269798714635 0)" font-family="sans-serif">DESTI…</text></g><g class="relationship" transform="translate(219.16385035981412 -169.30818427508046) rotate(486.7680193194828)"><path class="outline" fill="#A5ABB6" stroke="none" d="M 25 0.5 L 99.49299826434287 0.5 L 99.49299826434287 -0.5 L 25 -0.5 Z M 133.93831076434287 0.5 L 208.43130902868575 0.5 L 208.43130902868575 3.5 L 215.43130902868575 0 L 208.43130902868575 -3.5 L 208.43130902868575 -0.5 L 133.93831076434287 -0.5 Z"/><text text-anchor="middle" pointer-events="none" font-size="8px" fill="#000000" x="116.71565451434287" y="3" transform="rotate(180 116.71565451434287 0)" font-family="sans-serif">ORIGIN</text></g><g class="relationship" transform="translate(219.16385035981412 -169.30818427508046) rotate(455.978200855861)"><path class="outline" fill="#A5ABB6" stroke="none" d="M 25 0.5 L 44.60222900362069 0.5 L 44.60222900362069 -0.5 L 25 -0.5 Z M 103.78972900362069 0.5 L 123.39195800724139 0.5 L 123.39195800724139 3.5 L 130.39195800724139 0 L 123.39195800724139 -3.5 L 123.39195800724139 -0.5 L 103.78972900362069 -0.5 Z"/><text text-anchor="middle" pointer-events="none" font-size="8px" fill="#000000" x="74.19597900362069" y="3" transform="rotate(180 74.19597900362069 0)" font-family="sans-serif">DESTINATION</text></g><g class="relationship" transform="translate(117.81308739637561 -192.30044714980983) rotate(461.16857175456323)"><path class="outline" fill="#A5ABB6" stroke="none" d="M 25 0.5 L 89.1550135617674 0.5 L 89.1550135617674 -0.5 L 25 -0.5 Z M 123.6003260617674 0.5 L 187.7553396235348 0.5 L 187.7553396235348 3.5 L 194.7553396235348 0 L 187.7553396235348 -3.5 L 187.7553396235348 -0.5 L 123.6003260617674 -0.5 Z"/><text text-anchor="middle" pointer-events="none" font-size="8px" fill="#000000" x="106.3776698117674" y="3" transform="rotate(180 106.3776698117674 0)" font-family="sans-serif">ORIGIN</text></g><g class="relationship" transform="translate(117.81308739637561 -192.30044714980983) rotate(245.09567612926645)"><path class="outline" fill="#A5ABB6" stroke="none" d="M 25 0.5 L 59.96797167035402 0.5 L 59.96797167035402 -0.5 L 25 -0.5 Z M 119.15547167035402 0.5 L 154.12344334070804 0.5 L 154.12344334070804 3.5 L 161.12344334070804 0 L 154.12344334070804 -3.5 L 154.12344334070804 -0.5 L 119.15547167035402 -0.5 Z"/><text text-anchor="middle" pointer-events="none" font-size="8px" fill="#000000" x="89.56172167035402" y="3" transform="rotate(180 89.56172167035402 0)" font-family="sans-serif">DESTINATION</text></g><g class="relationship" transform="translate(151.7654336956901 -99.71585899298566) rotate(481.8838212432152)"><path class="outline" fill="#A5ABB6" stroke="none" d="M 25 0.5 L 51.71045095288383 0.5 L 51.71045095288383 -0.5 L 25 -0.5 Z M 86.15576345288383 0.5 L 112.86621440576766 0.5 L 112.86621440576766 3.5 L 119.86621440576766 0 L 112.86621440576766 -3.5 L 112.86621440576766 -0.5 L 86.15576345288383 -0.5 Z"/><text text-anchor="middle" pointer-events="none" font-size="8px" fill="#000000" x="68.93310720288383" y="3" transform="rotate(180 68.93310720288383 0)" font-family="sans-serif">ORIGIN</text></g><g class="relationship" transform="translate(151.7654336956901 -99.71585899298566) rotate(418.9165814979055)"><path class="outline" fill="#A5ABB6" stroke="none" d="M 25 0.5 L 27.31955170071057 0.5 L 27.31955170071057 -0.5 L 25 -0.5 Z M 64.87814545071058 0.5 L 67.19769715142114 0.5 L 67.19769715142114 3.5 L 74.19769715142114 0 L 67.19769715142114 -3.5 L 67.19769715142114 -0.5 L 64.87814545071058 -0.5 Z"/><text text-anchor="middle" pointer-events="none" font-size="8px" fill="#000000" x="46.09884857571057" y="3" font-family="sans-serif">DESTI…</text></g><g class="relationship" transform="translate(54.674405408647395 -114.63399387323945) rotate(441.5164322649979)"><path class="outline" fill="#A5ABB6" stroke="none" d="M 25 0.5 L 49.003806245983625 0.5 L 49.003806245983625 -0.5 L 25 -0.5 Z M 83.44911874598363 0.5 L 107.45292499196725 0.5 L 107.45292499196725 3.5 L 114.45292499196725 0 L 107.45292499196725 -3.5 L 107.45292499196725 -0.5 L 83.44911874598363 -0.5 Z"/><text text-anchor="middle" pointer-events="none" font-size="8px" fill="#000000" x="66.22646249598363" y="3" font-family="sans-serif">ORIGIN</text></g><g class="relationship" transform="translate(54.674405408647395 -114.63399387323945) rotate(393.957348682405)"><path class="outline" fill="#A5ABB6" stroke="none" d="M 25 0.5 L 56.305680840373356 0.5 L 56.305680840373356 -0.5 L 25 -0.5 Z M 115.49318084037336 0.5 L 146.7988616807467 0.5 L 146.7988616807467 3.5 L 153.7988616807467 0 L 146.7988616807467 -3.5 L 146.7988616807467 -0.5 L 115.49318084037336 -0.5 Z"/><text text-anchor="middle" pointer-events="none" font-size="8px" fill="#000000" x="85.89943084037336" y="3" font-family="sans-serif">DESTINATION</text></g><g class="relationship" transform="translate(-43.24141817408943 -133.44824675037808) rotate(412.91251314050777)"><path class="outline" fill="#A5ABB6" stroke="none" d="M 25 0.5 L 77.52119433515716 0.5 L 77.52119433515716 -0.5 L 25 -0.5 Z M 111.96650683515716 0.5 L 164.48770117031432 0.5 L 164.48770117031432 3.5 L 171.48770117031432 0 L 164.48770117031432 -3.5 L 164.48770117031432 -0.5 L 111.96650683515716 -0.5 Z"/><text text-anchor="middle" pointer-events="none" font-size="8px" fill="#000000" x="94.74385058515716" y="3" font-family="sans-serif">ORIGIN</text></g><g class="relationship" transform="translate(-43.24141817408943 -133.44824675037808) rotate(428.8311940373217)"><path class="outline" fill="#A5ABB6" stroke="none" d="M 25 0.5 L 27.327918987944457 0.5 L 27.327918987944457 -0.5 L 25 -0.5 Z M 70.66385648794446 0.5 L 72.99177547588891 0.5 L 72.99177547588891 3.5 L 79.99177547588891 0 L 72.99177547588891 -3.5 L 72.99177547588891 -0.5 L 70.66385648794446 -0.5 Z"/><text text-anchor="middle" pointer-events="none" font-size="8px" fill="#000000" x="48.99588773794446" y="3" font-family="sans-serif">DESTIN…</text></g><g class="relationship" transform="translate(20.62941594706746 -207.7726485842542) rotate(436.70087657824473)"><path class="outline" fill="#A5ABB6" stroke="none" d="M 25 0.5 L 97.99389549023138 0.5 L 97.99389549023138 -0.5 L 25 -0.5 Z M 132.43920799023138 0.5 L 205.43310348046276 0.5 L 205.43310348046276 3.5 L 212.43310348046276 0 L 205.43310348046276 -3.5 L 205.43310348046276 -0.5 L 132.43920799023138 -0.5 Z"/><text text-anchor="middle" pointer-events="none" font-size="8px" fill="#000000" x="115.21655174023138" y="3" font-family="sans-serif">ORIGIN</text></g><g class="relationship" transform="translate(20.62941594706746 -207.7726485842542) rotate(276.9919075169804)"><path class="outline" fill="#A5ABB6" stroke="none" d="M 25 0.5 L 44.15272435522965 0.5 L 44.15272435522965 -0.5 L 25 -0.5 Z M 103.34022435522965 0.5 L 122.4929487104593 0.5 L 122.4929487104593 3.5 L 129.4929487104593 0 L 122.4929487104593 -3.5 L 122.4929487104593 -0.5 L 103.34022435522965 -0.5 Z"/><text text-anchor="middle" pointer-events="none" font-size="8px" fill="#000000" x="73.74647435522965" y="3" font-family="sans-serif">DESTINATION</text></g><g class="relationship" transform="translate(-136.95146469939337 -104.70430654840405) rotate(391.09819697315277)"><path class="outline" fill="#A5ABB6" stroke="none" d="M 25 0.5 L 103.18420901804038 0.5 L 103.18420901804038 -0.5 L 25 -0.5 Z M 137.62952151804038 0.5 L 215.81373053608075 0.5 L 215.81373053608075 3.5 L 222.81373053608075 0 L 215.81373053608075 -3.5 L 215.81373053608075 -0.5 L 137.62952151804038 -0.5 Z"/><text text-anchor="middle" pointer-events="none" font-size="8px" fill="#000000" x="120.40686526804038" y="3" font-family="sans-serif">ORIGIN</text></g><g class="relationship" transform="translate(-136.95146469939337 -104.70430654840405) rotate(387.72003288652576)"><path class="outline" fill="#A5ABB6" stroke="none" d="M 25 0.5 L 41.250882572144775 0.5 L 41.250882572144775 -0.5 L 25 -0.5 Z M 100.43838257214477 0.5 L 116.68926514428955 0.5 L 116.68926514428955 3.5 L 123.68926514428955 0 L 116.68926514428955 -3.5 L 116.68926514428955 -0.5 L 100.43838257214477 -0.5 Z"/><text text-anchor="middle" pointer-events="none" font-size="8px" fill="#000000" x="70.84463257214477" y="3" font-family="sans-serif">DESTINATION</text></g><g class="relationship" transform="translate(-108.380867370932 -11.583674642888866) rotate(370.75416929650555)"><path class="outline" fill="#A5ABB6" stroke="none" d="M 25 0.5 L 72.73280425602582 0.5 L 72.73280425602582 -0.5 L 25 -0.5 Z M 107.17811675602582 0.5 L 154.91092101205163 0.5 L 154.91092101205163 3.5 L 161.91092101205163 0 L 154.91092101205163 -3.5 L 154.91092101205163 -0.5 L 107.17811675602582 -0.5 Z"/><text text-anchor="middle" pointer-events="none" font-size="8px" fill="#000000" x="89.95546050602582" y="3" font-family="sans-serif">ORIGIN</text></g><g class="relationship" transform="translate(-108.380867370932 -11.583674642888866) rotate(346.91254048267217)"><path class="outline" fill="#A5ABB6" stroke="none" d="M 25 0.5 L 25.065013586226435 0.5 L 25.065013586226435 -0.5 L 25 -0.5 Z M 73.73688858622643 0.5 L 73.80190217245287 0.5 L 73.80190217245287 3.5 L 80.80190217245287 0 L 73.80190217245287 -3.5 L 73.80190217245287 -0.5 L 73.73688858622643 -0.5 Z"/><text text-anchor="middle" pointer-events="none" font-size="8px" fill="#000000" x="49.400951086226435" y="3" font-family="sans-serif">DESTINA…</text></g><g class="relationship" transform="translate(-54.260232118173874 71.80821467917508) rotate(339.4634198816277)"><path class="outline" fill="#A5ABB6" stroke="none" d="M 25 0.5 L 48.42559288314034 0.5 L 48.42559288314034 -0.5 L 25 -0.5 Z M 82.87090538314034 0.5 L 106.29649826628068 0.5 L 106.29649826628068 3.5 L 113.29649826628068 0 L 106.29649826628068 -3.5 L 106.29649826628068 -0.5 L 82.87090538314034 -0.5 Z"/><text text-anchor="middle" pointer-events="none" font-size="8px" fill="#000000" x="65.64824913314034" y="3" font-family="sans-serif">ORIGIN</text></g><g class="relationship" transform="translate(-54.260232118173874 71.80821467917508) rotate(294.50492626141596)"><path class="outline" fill="#A5ABB6" stroke="none" d="M 25 0.5 L 25.894299261596984 0.5 L 25.894299261596984 -0.5 L 25 -0.5 Z M 85.08179926159698 0.5 L 85.97609852319397 0.5 L 85.97609852319397 3.5 L 92.97609852319397 0 L 85.97609852319397 -3.5 L 85.97609852319397 -0.5 L 85.08179926159698 -0.5 Z"/><text text-anchor="middle" pointer-events="none" font-size="8px" fill="#000000" x="55.488049261596984" y="3" font-family="sans-serif">DESTINATION</text></g><g class="relationship" transform="translate(55.12004319760523 237.68492023987355) rotate(275.3632491796753)"><path class="outline" fill="#A5ABB6" stroke="none" d="M 25 0.5 L 86.94462445135407 0.5 L 86.94462445135407 -0.5 L 25 -0.5 Z M 121.38993695135407 0.5 L 183.33456140270815 0.5 L 183.33456140270815 3.5 L 190.33456140270815 0 L 183.33456140270815 -3.5 L 183.33456140270815 -0.5 L 121.38993695135407 -0.5 Z"/><text text-anchor="middle" pointer-events="none" font-size="8px" fill="#000000" x="104.16728070135407" y="3" font-family="sans-serif">ORIGIN</text></g><g class="relationship" transform="translate(55.12004319760523 237.68492023987355) rotate(510.3394233824272)"><path class="outline" fill="#A5ABB6" stroke="none" d="M 25 0.5 L 60.47545383357462 0.5 L 60.47545383357462 -0.5 L 25 -0.5 Z M 119.66295383357462 0.5 L 155.13840766714924 0.5 L 155.13840766714924 3.5 L 162.13840766714924 0 L 155.13840766714924 -3.5 L 155.13840766714924 -0.5 L 119.66295383357462 -0.5 Z"/><text text-anchor="middle" pointer-events="none" font-size="8px" fill="#000000" x="90.06920383357462" y="3" transform="rotate(180 90.06920383357462 0)" font-family="sans-serif">DESTINATION</text></g><g class="relationship" transform="translate(0.28877685353195603 154.87008006514804) rotate(299.66986991360614)"><path class="outline" fill="#A5ABB6" stroke="none" d="M 25 0.5 L 54.99275025404694 0.5 L 54.99275025404694 -0.5 L 25 -0.5 Z M 89.43806275404694 0.5 L 119.43081300809388 0.5 L 119.43081300809388 3.5 L 126.43081300809388 0 L 119.43081300809388 -3.5 L 119.43081300809388 -0.5 L 89.43806275404694 -0.5 Z"/><text text-anchor="middle" pointer-events="none" font-size="8px" fill="#000000" x="72.21540650404694" y="3" font-family="sans-serif">ORIGIN</text></g><g class="relationship" transform="translate(0.28877685353195603 154.87008006514804) rotate(481.568306042643)"><path class="outline" fill="#A5ABB6" stroke="none" d="M 25 0.5 L 69.85160635481577 0.5 L 69.85160635481577 -0.5 L 25 -0.5 Z M 129.03910635481577 0.5 L 173.89071270963154 0.5 L 173.89071270963154 3.5 L 180.89071270963154 0 L 173.89071270963154 -3.5 L 173.89071270963154 -0.5 L 129.03910635481577 -0.5 Z"/><text text-anchor="middle" pointer-events="none" font-size="8px" fill="#000000" x="99.44535635481577" y="3" transform="rotate(180 99.44535635481577 0)" font-family="sans-serif">DESTINATION</text></g><g class="relationship" transform="translate(-152.44345749554086 77.02192393338717) rotate(346.72263269097084)"><path class="outline" fill="#A5ABB6" stroke="none" d="M 25 0.5 L 96.24942683322097 0.5 L 96.24942683322097 -0.5 L 25 -0.5 Z M 130.69473933322098 0.5 L 201.94416616644193 0.5 L 201.94416616644193 3.5 L 208.94416616644193 0 L 201.94416616644193 -3.5 L 201.94416616644193 -0.5 L 130.69473933322098 -0.5 Z"/><text text-anchor="middle" pointer-events="none" font-size="8px" fill="#000000" x="113.47208308322097" y="3" font-family="sans-serif">ORIGIN</text></g><g class="relationship" transform="translate(-152.44345749554086 77.02192393338717) rotate(535.8842895761504)"><path class="outline" fill="#A5ABB6" stroke="none" d="M 25 0.5 L 46.68646426634193 0.5 L 46.68646426634193 -0.5 L 25 -0.5 Z M 105.87396426634193 0.5 L 127.56042853268386 0.5 L 127.56042853268386 3.5 L 134.56042853268386 0 L 127.56042853268386 -3.5 L 127.56042853268386 -0.5 L 105.87396426634193 -0.5 Z"/><text text-anchor="middle" pointer-events="none" font-size="8px" fill="#000000" x="76.28021426634193" y="3" transform="rotate(180 76.28021426634193 0)" font-family="sans-serif">DESTINATION</text></g><g class="relationship" transform="translate(-98.49392825744687 159.84670746037284) rotate(321.8340735854765)"><path class="outline" fill="#A5ABB6" stroke="none" d="M 25 0.5 L 89.76819456686141 0.5 L 89.76819456686141 -0.5 L 25 -0.5 Z M 124.21350706686141 0.5 L 188.98170163372282 0.5 L 188.98170163372282 3.5 L 195.98170163372282 0 L 188.98170163372282 -3.5 L 188.98170163372282 -0.5 L 124.21350706686141 -0.5 Z"/><text text-anchor="middle" pointer-events="none" font-size="8px" fill="#000000" x="106.99085081686141" y="3" font-family="sans-serif">ORIGIN</text></g><g class="relationship" transform="translate(-98.49392825744687 159.84670746037284) rotate(453.02394364757015)"><path class="outline" fill="#A5ABB6" stroke="none" d="M 25 0.5 L 52.24792610648588 0.5 L 52.24792610648588 -0.5 L 25 -0.5 Z M 111.43542610648588 0.5 L 138.68335221297176 0.5 L 138.68335221297176 3.5 L 145.68335221297176 0 L 138.68335221297176 -3.5 L 138.68335221297176 -0.5 L 111.43542610648588 -0.5 Z"/><text text-anchor="middle" pointer-events="none" font-size="8px" fill="#000000" x="81.84167610648588" y="3" transform="rotate(180 81.84167610648588 0)" font-family="sans-serif">DESTINATION</text></g><g class="relationship" transform="translate(-43.14426821947584 241.22580697284135) rotate(298.51294243998484)"><path class="outline" fill="#A5ABB6" stroke="none" d="M 25 0.5 L 103.28464542498622 0.5 L 103.28464542498622 -0.5 L 25 -0.5 Z M 137.72995792498622 0.5 L 216.01460334997245 0.5 L 216.01460334997245 3.5 L 223.01460334997245 0 L 216.01460334997245 -3.5 L 216.01460334997245 -0.5 L 137.72995792498622 -0.5 Z"/><text text-anchor="middle" pointer-events="none" font-size="8px" fill="#000000" x="120.50730167498622" y="3" font-family="sans-serif">ORIGIN</text></g><g class="relationship" transform="translate(-43.14426821947584 241.22580697284135) rotate(485.8494447457665)"><path class="outline" fill="#A5ABB6" stroke="none" d="M 25 0.5 L 27.105541548564503 0.5 L 27.105541548564503 -0.5 L 25 -0.5 Z M 75.7774165485645 0.5 L 77.882958097129 0.5 L 77.882958097129 3.5 L 84.882958097129 0 L 77.882958097129 -3.5 L 77.882958097129 -0.5 L 75.7774165485645 -0.5 Z"/><text text-anchor="middle" pointer-events="none" font-size="8px" fill="#000000" x="51.4414790485645" y="3" transform="rotate(180 51.4414790485645 0)" font-family="sans-serif">DESTINA…</text></g></g><g class="layer nodes"><g class="node" aria-label="graph-node5" transform="translate(75.24730389372436,23.29306705657941)"><circle class="outline" cx="0" cy="0" r="25" fill="#8DCC93" stroke="#5db665" stroke-width="2px"/><text class="caption" text-anchor="middle" pointer-events="none" x="0" y="5" font-size="10px" fill="#2A2C34" font-family="sans-serif"> LAX</text></g><g class="node" aria-label="graph-node1" transform="translate(186.40925273013028,377.941641832482)"><circle class="outline" cx="0" cy="0" r="25" fill="#8DCC93" stroke="#5db665" stroke-width="2px"/><text class="caption" text-anchor="middle" pointer-events="none" x="0" y="5" font-size="10px" fill="#2A2C34" font-family="sans-serif"> EWR</text></g><g class="node" aria-label="graph-node2" transform="translate(369.90460034885183,272.013089893368)"><circle class="outline" cx="0" cy="0" r="25" fill="#8DCC93" stroke="#5db665" stroke-width="2px"/><text class="caption" text-anchor="middle" pointer-events="none" x="0" y="5" font-size="10px" fill="#2A2C34" font-family="sans-serif"> IAH</text></g><g class="node" aria-label="graph-node40" transform="translate(202.97976657279608,-14.761310979956683)"><circle class="outline" cx="0" cy="0" r="25" fill="#8DCC93" stroke="#5db665" stroke-width="2px"/><text class="caption" text-anchor="middle" pointer-events="none" x="0" y="5" font-size="10px" fill="#2A2C34" font-family="sans-serif"> ABQ</text></g><g class="node" aria-label="graph-node42" transform="translate(39.43571197007427,-361.11668802220447)"><circle class="outline" cx="0" cy="0" r="25" fill="#8DCC93" stroke="#5db665" stroke-width="2px"/><text class="caption" text-anchor="middle" pointer-events="none" x="0" y="5" font-size="10px" fill="#2A2C34" font-family="sans-serif"> TUS</text></g><g class="node" aria-label="graph-node13" transform="translate(-5.327111232711483,-35.54125901847791)"><circle class="outline" cx="0" cy="0" r="25" fill="#8DCC93" stroke="#5db665" stroke-width="2px"/><text class="caption" text-anchor="middle" pointer-events="none" x="0" y="5" font-size="10px" fill="#2A2C34" font-family="sans-serif"> SMF</text></g><g class="node" aria-label="graph-node41" transform="translate(-107.49803397817358,330.2923961791766)"><circle class="outline" cx="0" cy="0" r="25" fill="#8DCC93" stroke="#5db665" stroke-width="2px"/><text class="caption" text-anchor="middle" pointer-events="none" x="0" y="5" font-size="10px" fill="#2A2C34" font-family="sans-serif"> FAT</text></g><g class="node" aria-label="graph-node25" transform="translate(-311.5924021705549,88.47372564154765)"><circle class="outline" cx="0" cy="0" r="25" fill="#8DCC93" stroke="#5db665" stroke-width="2px"/><text class="caption" text-anchor="middle" pointer-events="none" x="0" y="5" font-size="10px" fill="#2A2C34" font-family="sans-serif"> LAS</text></g><g class="node" aria-label="graph-node135" transform="translate(152.0350724862832,221.86392912835925)"><circle class="outline" cx="0" cy="0" r="25" fill="#ECB5C9" stroke="#da7298" stroke-width="2px"/><text class="caption" text-anchor="middle" pointer-events="none" x="0" y="5" font-size="10px" fill="#2A2C34" font-family="sans-serif"> 11/30/20…</text></g><g class="node" aria-label="graph-node103" transform="translate(241.19525023727803,180.07662066053925)"><circle class="outline" cx="0" cy="0" r="25" fill="#ECB5C9" stroke="#da7298" stroke-width="2px"/><text class="caption" text-anchor="middle" pointer-events="none" x="0" y="5" font-size="10px" fill="#2A2C34" font-family="sans-serif"> 11/30/20…</text></g><g class="node" aria-label="graph-node919" transform="translate(249.8358933877919,82.18401796603965)"><circle class="outline" cx="0" cy="0" r="25" fill="#ECB5C9" stroke="#da7298" stroke-width="2px"/><text class="caption" text-anchor="middle" pointer-events="none" x="0" y="0" font-size="10px" fill="#2A2C34" font-family="sans-serif"> 11/2/2015</text><text class="caption" text-anchor="middle" pointer-events="none" x="0" y="10" font-size="10px" fill="#2A2C34" font-family="sans-serif"> 04:43:…</text></g><g class="node" aria-label="graph-node971" transform="translate(311.97943727383847,5.1544784413705615)"><circle class="outline" cx="0" cy="0" r="25" fill="#ECB5C9" stroke="#da7298" stroke-width="2px"/><text class="caption" text-anchor="middle" pointer-events="none" x="0" y="0" font-size="10px" fill="#2A2C34" font-family="sans-serif"> 11/1/2015</text><text class="caption" text-anchor="middle" pointer-events="none" x="0" y="10" font-size="10px" fill="#2A2C34" font-family="sans-serif"> 17:17:…</text></g><g class="node" aria-label="graph-node923" transform="translate(160.3086057079526,123.42852459420449)"><circle class="outline" cx="0" cy="0" r="25" fill="#ECB5C9" stroke="#da7298" stroke-width="2px"/><text class="caption" text-anchor="middle" pointer-events="none" x="0" y="0" font-size="10px" fill="#2A2C34" font-family="sans-serif"> 11/4/2015</text><text class="caption" text-anchor="middle" pointer-events="none" x="0" y="10" font-size="10px" fill="#2A2C34" font-family="sans-serif"> 15:09:…</text></g><g class="node" aria-label="graph-node927" transform="translate(272.34141527646204,-85.8606813545761)"><circle class="outline" cx="0" cy="0" r="25" fill="#ECB5C9" stroke="#da7298" stroke-width="2px"/><text class="caption" text-anchor="middle" pointer-events="none" x="0" y="0" font-size="10px" fill="#2A2C34" font-family="sans-serif"> 11/1/2015</text><text class="caption" text-anchor="middle" pointer-events="none" x="0" y="10" font-size="10px" fill="#2A2C34" font-family="sans-serif"> 05:43:…</text></g><g class="node" aria-label="graph-node931" transform="translate(219.16385035981412,-169.30818427508046)"><circle class="outline" cx="0" cy="0" r="25" fill="#ECB5C9" stroke="#da7298" stroke-width="2px"/><text class="caption" text-anchor="middle" pointer-events="none" x="0" y="0" font-size="10px" fill="#2A2C34" font-family="sans-serif"> 11/3/2015</text><text class="caption" text-anchor="middle" pointer-events="none" x="0" y="10" font-size="10px" fill="#2A2C34" font-family="sans-serif"> 21:46:…</text></g><g class="node" aria-label="graph-node979" transform="translate(117.81308739637561,-192.30044714980983)"><circle class="outline" cx="0" cy="0" r="25" fill="#ECB5C9" stroke="#da7298" stroke-width="2px"/><text class="caption" text-anchor="middle" pointer-events="none" x="0" y="0" font-size="10px" fill="#2A2C34" font-family="sans-serif"> 11/1/2015</text><text class="caption" text-anchor="middle" pointer-events="none" x="0" y="10" font-size="10px" fill="#2A2C34" font-family="sans-serif"> 05:51:…</text></g><g class="node" aria-label="graph-node967" transform="translate(151.7654336956901,-99.71585899298566)"><circle class="outline" cx="0" cy="0" r="25" fill="#ECB5C9" stroke="#da7298" stroke-width="2px"/><text class="caption" text-anchor="middle" pointer-events="none" x="0" y="0" font-size="10px" fill="#2A2C34" font-family="sans-serif"> 11/3/2015</text><text class="caption" text-anchor="middle" pointer-events="none" x="0" y="10" font-size="10px" fill="#2A2C34" font-family="sans-serif"> 23:26:…</text></g><g class="node" aria-label="graph-node975" transform="translate(54.674405408647395,-114.63399387323945)"><circle class="outline" cx="0" cy="0" r="25" fill="#ECB5C9" stroke="#da7298" stroke-width="2px"/><text class="caption" text-anchor="middle" pointer-events="none" x="0" y="0" font-size="10px" fill="#2A2C34" font-family="sans-serif"> 11/2/2015</text><text class="caption" text-anchor="middle" pointer-events="none" x="0" y="10" font-size="10px" fill="#2A2C34" font-family="sans-serif"> 15:15:…</text></g><g class="node" aria-label="graph-node1003" transform="translate(-43.24141817408943,-133.44824675037808)"><circle class="outline" cx="0" cy="0" r="25" fill="#ECB5C9" stroke="#da7298" stroke-width="2px"/><text class="caption" text-anchor="middle" pointer-events="none" x="0" y="0" font-size="10px" fill="#2A2C34" font-family="sans-serif"> 11/4/2015</text><text class="caption" text-anchor="middle" pointer-events="none" x="0" y="10" font-size="10px" fill="#2A2C34" font-family="sans-serif"> 05:06:…</text></g><g class="node" aria-label="graph-node983" transform="translate(20.62941594706746,-207.7726485842542)"><circle class="outline" cx="0" cy="0" r="25" fill="#ECB5C9" stroke="#da7298" stroke-width="2px"/><text class="caption" text-anchor="middle" pointer-events="none" x="0" y="0" font-size="10px" fill="#2A2C34" font-family="sans-serif"> 11/2/2015</text><text class="caption" text-anchor="middle" pointer-events="none" x="0" y="10" font-size="10px" fill="#2A2C34" font-family="sans-serif"> 09:52:…</text></g><g class="node" aria-label="graph-node995" transform="translate(-136.95146469939337,-104.70430654840405)"><circle class="outline" cx="0" cy="0" r="25" fill="#ECB5C9" stroke="#da7298" stroke-width="2px"/><text class="caption" text-anchor="middle" pointer-events="none" x="0" y="0" font-size="10px" fill="#2A2C34" font-family="sans-serif"> 11/2/2015</text><text class="caption" text-anchor="middle" pointer-events="none" x="0" y="10" font-size="10px" fill="#2A2C34" font-family="sans-serif"> 11:49:…</text></g><g class="node" aria-label="graph-node999" transform="translate(-108.380867370932,-11.583674642888866)"><circle class="outline" cx="0" cy="0" r="25" fill="#ECB5C9" stroke="#da7298" stroke-width="2px"/><text class="caption" text-anchor="middle" pointer-events="none" x="0" y="0" font-size="10px" fill="#2A2C34" font-family="sans-serif"> 11/1/2015</text><text class="caption" text-anchor="middle" pointer-events="none" x="0" y="10" font-size="10px" fill="#2A2C34" font-family="sans-serif"> 12:26:…</text></g><g class="node" aria-label="graph-node1007" transform="translate(-54.260232118173874,71.80821467917508)"><circle class="outline" cx="0" cy="0" r="25" fill="#ECB5C9" stroke="#da7298" stroke-width="2px"/><text class="caption" text-anchor="middle" pointer-events="none" x="0" y="0" font-size="10px" fill="#2A2C34" font-family="sans-serif"> 11/3/2015</text><text class="caption" text-anchor="middle" pointer-events="none" x="0" y="10" font-size="10px" fill="#2A2C34" font-family="sans-serif"> 13:44:…</text></g><g class="node" aria-label="graph-node955" transform="translate(55.12004319760523,237.68492023987355)"><circle class="outline" cx="0" cy="0" r="25" fill="#ECB5C9" stroke="#da7298" stroke-width="2px"/><text class="caption" text-anchor="middle" pointer-events="none" x="0" y="0" font-size="10px" fill="#2A2C34" font-family="sans-serif"> 11/2/2015</text><text class="caption" text-anchor="middle" pointer-events="none" x="0" y="10" font-size="10px" fill="#2A2C34" font-family="sans-serif"> 09:18:…</text></g><g class="node" aria-label="graph-node951" transform="translate(0.28877685353195603,154.87008006514804)"><circle class="outline" cx="0" cy="0" r="25" fill="#ECB5C9" stroke="#da7298" stroke-width="2px"/><text class="caption" text-anchor="middle" pointer-events="none" x="0" y="0" font-size="10px" fill="#2A2C34" font-family="sans-serif"> 11/3/2015</text><text class="caption" text-anchor="middle" pointer-events="none" x="0" y="10" font-size="10px" fill="#2A2C34" font-family="sans-serif"> 11:45:…</text></g><g class="node" aria-label="graph-node659" transform="translate(-152.44345749554086,77.02192393338717)"><circle class="outline" cx="0" cy="0" r="25" fill="#ECB5C9" stroke="#da7298" stroke-width="2px"/><text class="caption" text-anchor="middle" pointer-events="none" x="0" y="5" font-size="10px" fill="#2A2C34" font-family="sans-serif"> 11/29/20…</text></g><g class="node" aria-label="graph-node963" transform="translate(-98.49392825744687,159.84670746037284)"><circle class="outline" cx="0" cy="0" r="25" fill="#ECB5C9" stroke="#da7298" stroke-width="2px"/><text class="caption" text-anchor="middle" pointer-events="none" x="0" y="0" font-size="10px" fill="#2A2C34" font-family="sans-serif"> 11/4/2015</text><text class="caption" text-anchor="middle" pointer-events="none" x="0" y="10" font-size="10px" fill="#2A2C34" font-family="sans-serif"> 15:13:…</text></g><g class="node" aria-label="graph-node959" transform="translate(-43.14426821947584,241.22580697284135)"><circle class="outline" cx="0" cy="0" r="25" fill="#ECB5C9" stroke="#da7298" stroke-width="2px"/><text class="caption" text-anchor="middle" pointer-events="none" x="0" y="0" font-size="10px" fill="#2A2C34" font-family="sans-serif"> 11/1/2015</text><text class="caption" text-anchor="middle" pointer-events="none" x="0" y="10" font-size="10px" fill="#2A2C34" font-family="sans-serif"> 02:27:…</text></g></g></svg>