<svg xmlns="http://www.w3.org/2000/svg" width="309.9044189453125" height="339.33062744140625" viewBox="-185.91836547851562 -162.3392333984375 309.9044189453125 339.33062744140625"><title>Neo4j Graph Visualization</title><desc>Created using Neo4j (http://www.neo4j.com/)</desc><g class="layer relationships"><g class="relationship" transform="translate(50.9848303084661 147.99139832731476) rotate(286.5021573059622)"><path class="outline" fill="#A5ABB6" stroke="none" d="M 24.018736134675446,-6.953439040707552 L 24.277555179777966,-5.987513214418485 A 176.80618637683077 176.80618637683077 0 0 1 44.81711979399879,-10.203898410848723 L 44.674470692013784,-11.193671735253275 A 177.80618637683077 177.80618637683077 0 0 0 24.018736134675446,-6.953439040707552 Z M 91.13372045739553,-11.756200819914596 L 91.01507803341012,-10.763263774966191 A 176.80618637683077 176.80618637683077 0 0 1 111.65071027500609,-7.045428295008377 L 110.94464312393475,-4.129700396493494 L 118.5717532300527,-5.883892925594422 L 112.5921331431012,-10.933065493028222 L 111.88606599202986,-8.017337594513338 A 177.80618637683077 177.80618637683077 0 0 0 91.13372045739553,-11.756200819914596"/><text text-anchor="middle" pointer-events="none" font-size="8px" fill="#000000" x="67.89169568627742" y="-9.49904246020236" font-family="sans-serif">twowheeler</text></g><g class="relationship" transform="translate(91.56711432605995 11.006843821528266) rotate(271.35684170542095)"><path class="outline" fill="#A5ABB6" stroke="none" d="M 24.018736134675446,-6.953439040707552 L 24.277555179777966,-5.987513214418485 A 179.7936279966519 179.7936279966519 0 0 1 45.572227810307226,-10.333474426675679 L 45.43184829427926,-11.323572195322669 A 180.7936279966519 180.7936279966519 0 0 0 24.018736134675446,-6.953439040707552 Z M 91.89337538007857,-11.880482483020302 L 91.77676836621258,-10.887304349794817 A 179.7936279966519 179.7936279966519 0 0 1 113.16949342940212,-7.053014888807655 L 112.46271771758211,-4.137458665171881 L 120.09025390318894,-5.889797598500222 L 114.11186104516216,-10.940423186988687 L 113.40508533334214,-8.024866963352913 A 180.7936279966519 180.7936279966519 0 0 0 91.89337538007857,-11.880482483020302"/><text text-anchor="middle" pointer-events="none" font-size="8px" fill="#000000" x="68.65063908301228" y="-9.600882009830826" font-family="sans-serif">twowheeler</text></g><g class="relationship" transform="translate(91.56711432605995 11.006843821528266) rotate(213.10276650840433)"><path class="outline" fill="#A5ABB6" stroke="none" d="M 24.018736134675446,-6.953439040707552 L 24.277555179777966,-5.987513214418485 A 193.92038600756067 193.92038600756067 0 0 1 49.14876977522826,-10.935201956197943 L 49.01820550058851,-11.926641803182008 A 194.92038600756067 194.92038600756067 0 0 0 24.018736134675446,-6.953439040707552 Z M 95.48871702439695,-12.458394225016605 L 95.38087364719672,-11.464226328736487 A 193.92038600756067 193.92038600756067 0 0 1 120.35879187326886,-7.086950871317375 L 119.64884669670585,-4.172164799188768 L 127.27828357099611,-5.916209804691777 L 121.30538544201954,-10.973332300822182 L 120.59544026545653,-8.058546228693576 A 194.92038600756067 194.92038600756067 0 0 0 95.48871702439695,-12.458394225016605"/><text text-anchor="middle" pointer-events="none" font-size="8px" fill="#000000" x="72.24327780753754" y="-10.082462923450919" transform="rotate(180 72.24327780753754 -13.082462923450919)" font-family="sans-serif">twowheeler</text></g><g class="relationship" transform="translate(-35.40037968526212 -71.77096036190146) rotate(508.39609562868884)"><path class="outline" fill="#A5ABB6" stroke="none" d="M 24.018736134675446,6.953439040707552 L 24.277555179777966,5.987513214418485 A 176.42992399414203 176.42992399414203 0 0 0 44.722048558257285,10.187515503317712 L 44.579108344339645,11.177246828094866 A 177.42992399414203 177.42992399414203 0 0 1 24.018736134675446,6.953439040707552 Z M 91.03806054739576,11.740491384363736 L 90.91915681099648,10.747585597559038 A 176.42992399414203 176.42992399414203 0 0 0 111.45946364188613,7.04446204812863 L 110.75348673502403,4.1287122977252455 L 118.38054254397105,5.883140890517598 L 112.40076618436895,10.93212838199981 L 111.69478927750684,8.016378631596424 A 177.42992399414203 177.42992399414203 0 0 1 91.03806054739576,11.740491384363736"/><text text-anchor="middle" pointer-events="none" font-size="8px" fill="#000000" x="67.79612941753146" y="15.4862160370092" transform="rotate(180 67.79612941753146 12.4862160370092)" font-family="sans-serif">twowheeler</text></g><g class="relationship" transform="translate(50.9848303084661 147.99139832731476) rotate(286.5021573059622)"><path class="outline" fill="#A5ABB6" stroke="none" d="M 24.018736134675446,6.953439040707552 L 24.277555179777966,5.987513214418485 A 176.80618637683077 176.80618637683077 0 0 0 58.265708239945326,11.619660894582609 L 58.19912315314858,12.617441645156731 A 177.80618637683077 177.80618637683077 0 0 1 24.018736134675446,6.953439040707552 Z M 77.57855996087687,12.852088069792387 L 77.53615313236052,11.852987643961654 A 176.80618637683077 176.80618637683077 0 0 0 111.65071027500609,7.045428295008377 L 110.94464312393475,4.129700396493494 L 118.5717532300527,5.883892925594422 L 112.5921331431012,10.933065493028222 L 111.88606599202986,8.017337594513338 A 177.80618637683077 177.80618637683077 0 0 1 77.57855996087687,12.852088069792387"/><text text-anchor="middle" pointer-events="none" font-size="8px" fill="#000000" x="67.89169568627743" y="15.49904246020236" font-family="sans-serif">trek</text></g><g class="relationship" transform="translate(91.56711432605995 11.006843821528266) rotate(271.35684170542095)"><path class="outline" fill="#A5ABB6" stroke="none" d="M 24.018736134675446,6.953439040707552 L 24.277555179777966,5.987513214418485 A 179.7936279966519 179.7936279966519 0 0 0 59.02388438502624,11.727002420189962 L 58.95832207317066,12.724850897296648 A 180.7936279966519 180.7936279966519 0 0 1 24.018736134675446,6.953439040707552 Z M 78.33719991590134,12.957135480081092 L 78.29557439123046,11.958002197832968 A 179.7936279966519 179.7936279966519 0 0 0 113.16949342940212,7.053014888807655 L 112.46271771758211,4.137458665171881 L 120.09025390318894,5.889797598500222 L 114.11186104516216,10.940423186988687 L 113.40508533334214,8.024866963352913 A 180.7936279966519 180.7936279966519 0 0 1 78.33719991590134,12.957135480081092"/><text text-anchor="middle" pointer-events="none" font-size="8px" fill="#000000" x="68.65063908301231" y="15.600882009830826" font-family="sans-serif">trek</text></g><g class="relationship" transform="translate(91.56711432605995 11.006843821528266) rotate(213.10276650840433)"><path class="outline" fill="#A5ABB6" stroke="none" d="M 24.018736134675446,6.953439040707552 L 24.277555179777966,5.987513214418485 A 193.92038600756067 193.92038600756067 0 0 0 62.61324118287061,12.232507392698523 L 62.552109894029044,13.230637126513017 A 194.92038600756067 194.92038600756067 0 0 1 24.018736134675446,6.953439040707552 Z M 81.92851756932573,13.452357339395007 L 81.89024207947077,12.453090114436435 A 193.92038600756067 193.92038600756067 0 0 0 120.35879187326886,7.086950871317375 L 119.64884669670585,4.172164799188768 L 127.27828357099611,5.916209804691777 L 121.30538544201954,10.973332300822182 L 120.59544026545653,8.058546228693576 A 194.92038600756067 194.92038600756067 0 0 1 81.92851756932573,13.452357339395007"/><text text-anchor="middle" pointer-events="none" font-size="8px" fill="#000000" x="72.24327780753754" y="16.08246292345092" transform="rotate(180 72.24327780753754 13.082462923450919)" font-family="sans-serif">trek</text></g><g class="relationship" transform="translate(-35.40037968526212 -71.77096036190146) rotate(508.39609562868884)"><path class="outline" fill="#A5ABB6" stroke="none" d="M 24.018736134675446,-6.953439040707552 L 24.277555179777966,-5.987513214418485 A 176.42992399414203 176.42992399414203 0 0 1 58.170240611726285,-11.606129537153748 L 58.10352438379141,-12.603901527605558 A 177.42992399414203 177.42992399414203 0 0 0 24.018736134675446,-6.953439040707552 Z M 77.48303255392192,-12.838848765164585 L 77.440525333332,-11.839752605529412 A 176.42992399414203 176.42992399414203 0 0 1 111.45946364188613,-7.04446204812863 L 110.75348673502403,-4.1287122977252455 L 118.38054254397105,-5.883140890517598 L 112.40076618436895,-10.93212838199981 L 111.69478927750684,-8.016378631596424 A 177.42992399414203 177.42992399414203 0 0 0 77.48303255392192,-12.838848765164585"/><text text-anchor="middle" pointer-events="none" font-size="8px" fill="#000000" x="67.7961294175314" y="-9.4862160370092" transform="rotate(180 67.7961294175314 -12.4862160370092)" font-family="sans-serif">trek</text></g><g class="relationship" transform="translate(94.98606405504627 -133.3392273718222) rotate(514.7233949329784)"><path class="outline" fill="#A5ABB6" stroke="none" d="M 21.40063509461097,12.933012701892217 L 21.90063509461097,12.06698729810778 A 97.62338579257066 97.62338579257066 0 0 0 45.609866236766564,21.86348340902842 L 45.35273049464564,22.829858703685687 A 98.62338579257066 98.62338579257066 0 0 1 21.40063509461097,12.933012701892217 Z M 91.6066764547598,23.907293120841743 L 91.39481647554749,22.92999309055004 A 97.62338579257066 97.62338579257066 0 0 0 115.5344815910347,14.248083996602457 L 114.15708149669534,11.582981938497756 L 121.98261974233557,11.478334119494715 L 117.37101505015387,17.801553407408722 L 115.99361495581451,15.136451349304021 A 98.62338579257066 98.62338579257066 0 0 1 91.6066764547598,23.907293120841743"/><text text-anchor="middle" pointer-events="none" font-size="8px" fill="#000000" x="68.42727230705856" y="28.619430680055743" transform="rotate(180 68.42727230705856 25.619430680055743)" font-family="sans-serif">twowheeler</text></g><g class="relationship" transform="translate(94.98606405504627 -133.3392273718222) rotate(514.7233949329784)"><path class="outline" fill="#A5ABB6" stroke="none" d="M 25 0.5 L 57.59004240493735 0.5 L 57.59004240493735 -0.5 L 25 -0.5 Z M 79.60176115493735 0.5 L 112.1918035598747 0.5 L 112.1918035598747 3.5 L 119.1918035598747 0 L 112.1918035598747 -3.5 L 112.1918035598747 -0.5 L 79.60176115493735 -0.5 Z"/><text text-anchor="middle" pointer-events="none" font-size="8px" fill="#000000" x="68.59590177993735" y="3" transform="rotate(180 68.59590177993735 0)" font-family="sans-serif">road</text></g><g class="relationship" transform="translate(94.98606405504627 -133.3392273718222) rotate(514.7233949329784)"><path class="outline" fill="#A5ABB6" stroke="none" d="M 21.40063509461097,-12.933012701892217 L 21.90063509461097,-12.06698729810778 A 97.62338579257066 97.62338579257066 0 0 1 58.849397452732546,-24.422584675314496 L 58.72788014986651,-25.41517398872874 A 98.62338579257066 98.62338579257066 0 0 0 21.40063509461097,-12.933012701892217 Z M 78.12565499345048,-25.867023659041052 L 78.05048694945181,-24.869852778418576 A 97.62338579257066 97.62338579257066 0 0 1 115.5344815910347,-14.248083996602457 L 114.15708149669534,-11.582981938497756 L 121.98261974233557,-11.478334119494715 L 117.37101505015387,-17.801553407408722 L 115.99361495581451,-15.136451349304021 A 98.62338579257066 98.62338579257066 0 0 0 78.12565499345048,-25.867023659041052"/><text text-anchor="middle" pointer-events="none" font-size="8px" fill="#000000" x="68.42727230705853" y="-22.619430680055743" transform="rotate(180 68.42727230705853 -25.619430680055743)" font-family="sans-serif">trek</text></g></g><g class="layer nodes"><g class="node" aria-label="graph-node0" transform="translate(50.9848303084661,147.99139832731476)"><circle class="outline" cx="0" cy="0" r="25" fill="#57C7E3" stroke="#23b3d7" stroke-width="2px"/><text class="caption" text-anchor="middle" pointer-events="none" x="0" y="5" font-size="10px" fill="#2A2C34" font-family="sans-serif"> Rimbik</text></g><g class="node" aria-label="graph-node4" transform="translate(91.56711432605995,11.006843821528266)"><circle class="outline" cx="0" cy="0" r="25" fill="#D9C8AE" stroke="#c0a378" stroke-width="2px"/><text class="caption" text-anchor="middle" pointer-events="none" x="0" y="5" font-size="10px" fill="#2A2C34" font-family="sans-serif"> Sirikhola</text></g><g class="node" aria-label="graph-node8" transform="translate(94.98606405504627,-133.3392273718222)"><circle class="outline" cx="0" cy="0" r="25" fill="#D9C8AE" stroke="#c0a378" stroke-width="2px"/><text class="caption" text-anchor="middle" pointer-events="none" x="0" y="5" font-size="10px" fill="#2A2C34" font-family="sans-serif"> Rammam</text></g><g class="node" aria-label="graph-node5" transform="translate(-35.40037968526212,-71.77096036190146)"><circle class="outline" cx="0" cy="0" r="25" fill="#D9C8AE" stroke="#c0a378" stroke-width="2px"/><text class="caption" text-anchor="middle" pointer-events="none" x="0" y="5" font-size="10px" fill="#2A2C34" font-family="sans-serif"> Gurdum</text></g><g class="node" aria-label="graph-node3" transform="translate(-156.91836970551338,2.998821171986814)"><circle class="outline" cx="0" cy="0" r="25" fill="#F16667" stroke="#eb2728" stroke-width="2px"/><text class="caption" text-anchor="middle" pointer-events="none" x="0" y="5" font-size="10px" fill="#FFFFFF" font-family="sans-serif"> Sandakp…</text></g></g></svg>